<svg xmlns="http://www.w3.org/2000/svg" xmlns:xlink="http://www.w3.org/1999/xlink" id="Capa_1" x="0px" y="0px" viewBox="0 0 350 300" style="enable-background:new 0 0 350 300;" xml:space="preserve">
<style type="text/css">
	.st0{fill:#DBDBDB;}
	.st1{clip-path:url(#XMLID_48_);}
	.st2{fill:#5E5E5E;}
	.st3{fill:none;stroke:#5E5E5E;stroke-width:4;stroke-linecap:round;stroke-miterlimit:10;}
	.st4{clip-path:url(#XMLID_49_);}
	.st5{fill:#00B0FF;}
	.st6{fill:none;stroke:#00B0FF;stroke-width:3.627;stroke-linecap:round;stroke-linejoin:round;stroke-miterlimit:10;}
	.st7{clip-path:url(#XMLID_50_);}
	.st8{fill:none;}
</style>
<g id="XMLID_105_">
	<g id="XMLID_1207_">
		<polygon id="XMLID_237_" class="st0" points="41.2,261.4 41.2,274.3 349.1,274.3 349.1,113.7 336.7,113.7 336.7,261.4   "></polygon>
	</g>
	<g id="XMLID_878_">
		<g id="XMLID_879_">
			<path id="XMLID_235_" class="st0" d="M47.8,115.3v-7.7c0-2.5,0.1-5,0.4-7.4c0,0.1,0,0.2,0.1,0.4c-0.3-2.4-0.4-4.7-0.4-7.2     c0-3.3,0.3-6.5,0.8-9.7C35,94,26.3,109.4,26.3,126.7c0,31,27.9,56.1,62.3,56.1c7.1,0,13.9-1.1,20.2-3     C74.3,175.3,47.8,151.3,47.8,115.3z"></path>
		</g>
	</g>
	<g id="XMLID_880_">
		<defs>
			<path id="XMLID_220_" d="M82.1,194.1c-38.3,0-69.8-26.2-73.6-59.7c-0.3,2.4-0.4,4.8-0.4,7.4v7.7c0,40.1,32.8,65.2,72.9,65.2h2.1     c40.1,0,72.9-25.1,72.9-65.2v-7.7c0-2.5-0.1-5-0.4-7.4C151.8,168,120.3,194.1,82.1,194.1z"></path>
		</defs>
		<clipPath id="XMLID_48_">
			<use xlink:href="#XMLID_220_" style="overflow:visible;"></use>
		</clipPath>
		<g id="XMLID_882_" class="st1">
			<g id="XMLID_883_">
				<g id="XMLID_888_">
					<path id="XMLID_46_" class="st2" d="M81.2,217.5c-1.6,0-2.9-1.3-2.9-2.9v-62.9c0-1.6,1.3-2.9,2.9-2.9c1.6,0,2.9,1.3,2.9,2.9       v62.9C84.1,216.2,82.8,217.5,81.2,217.5z"></path>
				</g>
				<g id="XMLID_887_">
					<path id="XMLID_45_" class="st2" d="M48.8,217.5c-1.6,0-2.9-1.3-2.9-2.9v-62.9c0-1.6,1.3-2.9,2.9-2.9s2.9,1.3,2.9,2.9v62.9       C51.7,216.2,50.4,217.5,48.8,217.5z"></path>
				</g>
				<g id="XMLID_886_">
					<path id="XMLID_44_" class="st2" d="M22.7,217.5c-1.6,0-2.9-1.3-2.9-2.9v-62.9c0-1.6,1.3-2.9,2.9-2.9s2.9,1.3,2.9,2.9v62.9       C25.6,216.2,24.3,217.5,22.7,217.5z"></path>
				</g>
				<g id="XMLID_885_">
					<path id="XMLID_226_" class="st3" d="M139.7,214.7"></path>
				</g>
				<g id="XMLID_884_">
					<path id="XMLID_43_" class="st2" d="M113.6,217.5c-1.6,0-2.9-1.3-2.9-2.9v-62.9c0-1.6,1.3-2.9,2.9-2.9c1.6,0,2.9,1.3,2.9,2.9       v62.9C116.5,216.2,115.2,217.5,113.6,217.5z"></path>
				</g>
			</g>
		</g>
	</g>
	<g id="XMLID_1112_">
		<path id="XMLID_42_" class="st2" d="M83.1,217.5H81c-43.9,0-75.8-28.6-75.8-68.1v-7.7c0-2.6,0.1-5.2,0.4-7.7l2.8-26l2.9,26    c3.7,32.6,34.1,57.2,70.7,57.2c11.2,0,21.9-2.3,31.9-6.8c1.4-0.6,3.1,0,3.8,1.4c0.7,1.4,0,3.1-1.4,3.8    c-10.7,4.8-22.2,7.3-34.2,7.3c-31.8,0-59.3-17.3-70.9-42.5c2.6,33.5,31.2,57.3,69.9,57.3h2.1c21,0,39.7-7,52.7-19.7    c1.1-1.1,2.9-1.1,4.1,0c1.1,1.1,1.1,2.9,0,4.1C125.8,209.9,105.6,217.5,83.1,217.5z"></path>
	</g>
	<g id="XMLID_1111_">
		<path id="XMLID_41_" class="st2" d="M128,182.6c-1.4,0-2.7-1.1-2.8-2.5c-0.2-1.6,0.9-3,2.5-3.2c8.2-1.1,15.9-3.2,22.9-6.5    c1.4-0.7,3.1,0,3.8,1.4c0.7,1.4,0,3.1-1.4,3.8c-7.6,3.5-15.8,5.8-24.6,7C128.2,182.6,128.1,182.6,128,182.6z"></path>
	</g>
	<g id="XMLID_889_">
		<path id="XMLID_38_" class="st2" d="M44.4,99.9c3.7,32.6,34.1,57.2,70.7,57.2c36.6,0,67-24.6,70.7-57.2l5.1-11.7l0.6,11.7    c0.3,2.5,0.4,5.1,0.4,7.7v7.7c0,39.5-31.9,68.1-75.8,68.1h-2.1c-43.9,0-75.8-28.6-75.8-68.1v-7.7c0-2.6,0.1-5.2,0.4-7.7     M44.2,120.3c2.6,33.5,31.2,57.3,69.9,57.3h2.1c38.7,0,67.3-23.8,69.9-57.3c-11.6,25.2-39.1,42.5-70.9,42.5S55.9,145.5,44.2,120.3    z"></path>
	</g>
	<g id="XMLID_890_">
		<path id="XMLID_35_" class="st2" d="M115.1,162.1c-41.9,0-76.1-30.8-76.1-68.7c0-37.9,34.1-68.7,76.1-68.7s76.1,30.8,76.1,68.7    C191.2,131.3,157.1,162.1,115.1,162.1z M115.1,29c-39.6,0-71.8,28.9-71.8,64.4c0,35.5,32.2,64.4,71.8,64.4s71.8-28.9,71.8-64.4    C186.9,57.9,154.7,29,115.1,29z"></path>
	</g>
	<g id="XMLID_891_">
		<path id="XMLID_32_" class="st2" d="M115.1,162.1c-41.9,0-76.1-30.8-76.1-68.7c0-37.9,34.1-68.7,76.1-68.7s76.1,30.8,76.1,68.7    C191.2,131.3,157.1,162.1,115.1,162.1z M115.1,29c-39.6,0-71.8,28.9-71.8,64.4c0,35.5,32.2,64.4,71.8,64.4s71.8-28.9,71.8-64.4    C186.9,57.9,154.7,29,115.1,29z"></path>
	</g>
	<g id="XMLID_892_">
		<defs>
			<path id="XMLID_181_" d="M115.1,160c-38.3,0-69.8-26.2-73.6-59.7c-0.3,2.4-0.4,4.8-0.4,7.4v7.7c0,40.1,32.8,65.2,72.9,65.2h2.1     c40.1,0,72.9-25.1,72.9-65.2v-7.7c0-2.5-0.1-5-0.4-7.4C184.9,133.8,153.4,160,115.1,160z"></path>
		</defs>
		<clipPath id="XMLID_49_">
			<use xlink:href="#XMLID_181_" style="overflow:visible;"></use>
		</clipPath>
		<g id="XMLID_893_" class="st4">
			<g id="XMLID_894_">
				<g id="XMLID_895_">
					<path id="XMLID_31_" class="st2" d="M114.3,183.3c-1.6,0-2.9-1.3-2.9-2.9v-62.9c0-1.6,1.3-2.9,2.9-2.9c1.6,0,2.9,1.3,2.9,2.9       v62.9C117.1,182.1,115.8,183.3,114.3,183.3z"></path>
				</g>
				<g id="XMLID_896_">
					<path id="XMLID_199_" class="st3" d="M99.6,117.6"></path>
				</g>
				<g id="XMLID_897_">
					<path id="XMLID_197_" class="st3" d="M99.6,180.5"></path>
				</g>
				<g id="XMLID_898_">
					<path id="XMLID_195_" class="st3" d="M85,117.6"></path>
				</g>
				<g id="XMLID_902_">
					<path id="XMLID_193_" class="st3" d="M85,180.5"></path>
				</g>
				<g id="XMLID_903_">
					<path id="XMLID_30_" class="st2" d="M55.8,183.3c-1.6,0-2.9-1.3-2.9-2.9v-62.9c0-1.6,1.3-2.9,2.9-2.9s2.9,1.3,2.9,2.9v62.9       C58.6,182.1,57.4,183.3,55.8,183.3z"></path>
				</g>
				<g id="XMLID_345_">
					<path id="XMLID_29_" class="st2" d="M172.8,183.3c-1.6,0-2.9-1.3-2.9-2.9v-62.9c0-1.6,1.3-2.9,2.9-2.9c1.6,0,2.9,1.3,2.9,2.9       v62.9C175.6,182.1,174.3,183.3,172.8,183.3z"></path>
				</g>
				<g id="XMLID_1002_">
					<path id="XMLID_187_" class="st3" d="M143.5,117.6"></path>
				</g>
				<g id="XMLID_1003_">
					<path id="XMLID_185_" class="st3" d="M143.5,180.5"></path>
				</g>
			</g>
		</g>
	</g>
	<g id="XMLID_1005_">
		<path id="XMLID_26_" class="st2" d="M44.4,99.9c3.7,32.6,34.1,57.2,70.7,57.2c36.6,0,67-24.6,70.7-57.2l2.1-19l3.5,19    c0.3,2.5,0.4,5.1,0.4,7.7v7.7c0,39.5-31.9,68.1-75.8,68.1h-2.1c-43.9,0-75.8-28.6-75.8-68.1v-7.7c0-2.6,0.1-5.2,0.4-7.7     M44.2,120.3c2.6,33.5,31.2,57.3,69.9,57.3h2.1c38.7,0,67.3-23.8,69.9-57.3c-11.6,25.2-39.1,42.5-70.9,42.5S55.9,145.5,44.2,120.3    z"></path>
	</g>
	<g id="XMLID_1006_">
		<path id="XMLID_23_" class="st2" d="M115.1,162.1c-41.9,0-76.1-30.8-76.1-68.7c0-37.9,34.1-68.7,76.1-68.7s76.1,30.8,76.1,68.7    C191.2,131.3,157.1,162.1,115.1,162.1z M115.1,29c-39.6,0-71.8,28.9-71.8,64.4c0,35.5,32.2,64.4,71.8,64.4s71.8-28.9,71.8-64.4    C186.9,57.9,154.7,29,115.1,29z"></path>
	</g>
	<g id="XMLID_1007_">
		<path id="XMLID_20_" class="st2" d="M115.1,162.1c-41.9,0-76.1-30.8-76.1-68.7c0-37.9,34.1-68.7,76.1-68.7s76.1,30.8,76.1,68.7    C191.2,131.3,157.1,162.1,115.1,162.1z M115.1,29c-39.6,0-71.8,28.9-71.8,64.4c0,35.5,32.2,64.4,71.8,64.4s71.8-28.9,71.8-64.4    C186.9,57.9,154.7,29,115.1,29z"></path>
	</g>
	<g id="XMLID_1008_">
		<path id="XMLID_17_" class="st5" d="M140.2,127.5c-0.4,0-0.8-0.1-1.1-0.2L115.1,116l-23.9,11.3c-0.9,0.4-1.9,0.3-2.7-0.3    c-0.8-0.6-1.1-1.6-1-2.5l4.5-23.6L72.9,84c-0.8-0.7-1.1-1.7-0.8-2.7s1.1-1.7,2.1-1.8l26.7-3.5l11.9-21.7c0.5-0.8,1.3-1.3,2.3-1.3    c0.9,0,1.8,0.5,2.3,1.3L129.3,76l26.7,3.5c1,0.1,1.9,0.8,2.1,1.8c0.3,1,0,2-0.8,2.7l-19.1,16.8l4.5,23.6c0.2,1-0.2,1.9-1,2.5    C141.3,127.4,140.7,127.5,140.2,127.5z M115.1,110.5c0.4,0,0.8,0.1,1.1,0.2l20.4,9.7l-3.8-20.1c-0.2-0.9,0.1-1.8,0.8-2.4l15.9-14    L127.3,81c-0.8-0.1-1.5-0.6-1.9-1.3L115.1,61l-10.2,18.7c-0.4,0.7-1.1,1.2-1.9,1.3l-22.3,2.9l15.9,14c0.7,0.6,1,1.5,0.8,2.4    l-3.8,20.1l20.4-9.7C114.3,110.6,114.7,110.5,115.1,110.5z"></path>
	</g>
	<g id="XMLID_1009_">
		<path id="XMLID_16_" class="st5" d="M157.3,220.5c-0.7,0-1.3-0.2-1.9-0.6c-0.9-0.7-1.3-1.8-1.1-3l5.2-27.5l-5-4.4    c-1.3-1.1-1.4-3-0.3-4.3c1.1-1.3,3-1.4,4.3-0.3l6.3,5.5c0.8,0.7,1.2,1.8,1,2.8l-4.5,23.4l23.8-11.3c0.8-0.4,1.8-0.4,2.6,0    l23.8,11.3l-4.5-23.4c-0.2-1.1,0.2-2.1,1-2.8l18.6-16.3l-26-3.4c-1-0.1-1.8-0.7-2.3-1.5l-5.2-9.4c-0.8-1.5-0.3-3.3,1.2-4.1    c1.5-0.8,3.3-0.3,4.1,1.2l4.4,8.1l31.1,4.1c1.2,0.2,2.2,1,2.5,2.1c0.3,1.1,0,2.4-0.9,3.2l-22.3,19.6l5.2,27.5    c0.2,1.1-0.2,2.3-1.1,3c-0.9,0.7-2.1,0.8-3.1,0.3L186.5,207l-27.9,13.2C158.2,220.4,157.7,220.5,157.3,220.5z"></path>
	</g>
	<g id="XMLID_1010_">
		<path id="XMLID_156_" class="st6" d="M164.9,170.9"></path>
	</g>
	<g id="XMLID_1011_">
		<path id="XMLID_15_" class="st2" d="M115.1,151.4c-35.9,0-65.2-26.4-65.2-59c0-11.8,3.9-23.2,11.2-33c0.9-1.3,2.7-1.5,4-0.6    c1.3,0.9,1.5,2.7,0.6,4c-6.6,8.8-10,19-10,29.6c0,29.4,26.7,53.2,59.5,53.2s59.5-23.9,59.5-53.2c0-29.4-26.7-53.2-59.5-53.2    c-11.1,0-22,2.8-31.3,8c-1.4,0.8-3.1,0.3-3.9-1.1c-0.8-1.4-0.3-3.1,1.1-3.9c10.2-5.7,22-8.7,34.1-8.7c35.9,0,65.2,26.4,65.2,59    C180.3,125,151.1,151.4,115.1,151.4z"></path>
	</g>
	<g id="XMLID_1012_">
		<defs>
			<path id="XMLID_140_" d="M115.1,160c-38.3,0-69.8-26.2-73.6-59.7c-0.3,2.4-0.4,4.8-0.4,7.4v7.7c0,40.1,32.8,65.2,72.9,65.2h2.1     c40.1,0,72.9-25.1,72.9-65.2v-7.7c0-2.5-0.1-5-0.4-7.4C184.9,133.8,153.4,160,115.1,160z"></path>
		</defs>
		<clipPath id="XMLID_50_">
			<use xlink:href="#XMLID_140_" style="overflow:visible;"></use>
		</clipPath>
		<g id="XMLID_1013_" class="st7">
			<g id="XMLID_1014_">
				<g id="XMLID_1015_">
					<path id="XMLID_14_" class="st2" d="M114.3,183.3c-1.6,0-2.9-1.3-2.9-2.9v-62.9c0-1.6,1.3-2.9,2.9-2.9c1.6,0,2.9,1.3,2.9,2.9       v62.9C117.1,182.1,115.8,183.3,114.3,183.3z"></path>
				</g>
				<g id="XMLID_1016_">
					<path id="XMLID_13_" class="st2" d="M80.8,183.3c-1.6,0-2.9-1.3-2.9-2.9v-62.9c0-1.6,1.3-2.9,2.9-2.9c1.6,0,2.9,1.3,2.9,2.9       v62.9C83.7,182.1,82.4,183.3,80.8,183.3z"></path>
				</g>
				<g id="XMLID_1017_">
					<path id="XMLID_12_" class="st2" d="M55.8,183.3c-1.6,0-2.9-1.3-2.9-2.9v-62.9c0-1.6,1.3-2.9,2.9-2.9s2.9,1.3,2.9,2.9v62.9       C58.6,182.1,57.4,183.3,55.8,183.3z"></path>
				</g>
				<g id="XMLID_1018_">
					<path id="XMLID_11_" class="st2" d="M172.8,183.3c-1.6,0-2.9-1.3-2.9-2.9v-62.9c0-1.6,1.3-2.9,2.9-2.9c1.6,0,2.9,1.3,2.9,2.9       v62.9C175.6,182.1,174.3,183.3,172.8,183.3z"></path>
				</g>
				<g id="XMLID_1019_">
					<path id="XMLID_10_" class="st2" d="M146.7,183.3c-1.6,0-2.9-1.3-2.9-2.9v-62.9c0-1.6,1.3-2.9,2.9-2.9s2.9,1.3,2.9,2.9v62.9       C149.6,182.1,148.3,183.3,146.7,183.3z"></path>
				</g>
			</g>
		</g>
	</g>
	<g id="XMLID_1021_">
		<g id="XMLID_1022_">
			<path id="XMLID_9_" class="st2" d="M115.1,162.8c-1.3,0-2.6,0-3.8-0.1l0.3-5.7c2.4,0.1,4.8,0.1,7.1,0l0.3,5.7     C117.7,162.8,116.4,162.8,115.1,162.8z"></path>
		</g>
		<g id="XMLID_1023_">
			<path id="XMLID_47_" class="st2" d="M47.3,66.8"></path>
			<path id="XMLID_8_" class="st2" d="M44,93.4c0,2.2,0.1,4.5,0.4,6.8h0l0,0l-1.3,0.1l1.2,0.1c-0.2,2.3-0.4,4.7-0.4,7.1v7.7     c0,36.1,29.5,62.4,70,62.4h2.1c3.8,0,7.6-0.2,11.4-0.7c1.4-0.2,2.8,0.6,3.2,1.9c0.6,1.8-0.6,3.5-2.3,3.8c-4,0.5-8.2,0.8-12.2,0.8     h-2.1c-43.9,0-75.8-28.6-75.8-68.1v-7.7c0-2,0.1-3.9,0.2-5.8c0.1-0.8,0.1-1.6,0.1-2.5c0-3.1,0.7-10.1,0.7-12.1"></path>
		</g>
		<g id="XMLID_1024_">
			<path id="XMLID_7_" class="st2" d="M82.1,197c-42.4,0-76.8-31.1-76.8-69.4c0-20.2,9.7-39.3,26.5-52.5c1.2-1,3-0.8,4,0.5     c1,1.2,0.8,3-0.5,4C19.8,91.7,11,109.2,11,127.6c0,35.1,31.9,63.7,71.1,63.7c1.6,0,2.9,1.3,2.9,2.9C84.9,195.7,83.6,197,82.1,197     z"></path>
		</g>
	</g>
	<g id="XMLID_1025_">
		<g id="XMLID_1026_">
			<path id="XMLID_6_" class="st2" d="M115.1,162.8c-1.3,0-2.6,0-3.8-0.1l0.3-5.7c2.4,0.1,4.8,0.1,7.1,0l0.3,5.7     C117.7,162.8,116.4,162.8,115.1,162.8z"></path>
		</g>
		<g id="XMLID_1027_">
			<path id="XMLID_1_" class="st2" d="M42.2,80.9c0.1,0,0.2,0,0.2,0c1.6,0.3,4.1-6.9,3.7-5.4c-2,8.1-2.1,14.8-2.1,17.8     c0,2.2,0.1,4.5,0.4,6.8h0l0,0l-1.3,0.1l1.2,0.1c-0.2,2.3-0.4,4.7-0.4,7.1v7.7c0,32.9,23,57.1,58.6,61.6c1.6,0.2,2.7,1.6,2.5,3.2     c-0.2,1.4-1.4,2.5-2.8,2.5c-0.1,0-0.2,0-0.4,0c-38-4.9-63.6-31.9-63.6-67.3v-7.7c0-2.5,0.1-5,0.4-7.4c-0.2-2.3,0.4-6.5,0.4-8.7     c0-3.3,0.6-6.1,1.1-9.5c0.2-1,0.8-2.7,1.6-3.1"></path>
		</g>
		<g id="XMLID_1028_">
			<path id="XMLID_4_" class="st2" d="M82.1,185.6c-35.9,0-65.2-26.4-65.2-59c0-9.7,2.7-19.4,7.8-27.9c0.8-1.4,2.6-1.8,3.9-1     c1.4,0.8,1.8,2.6,1,3.9c-4.5,7.6-7,16.3-7,25c0,29.4,26.7,53.2,59.5,53.2c1.6,0,2.9,1.3,2.9,2.9     C84.9,184.3,83.6,185.6,82.1,185.6z"></path>
		</g>
	</g>
	<g id="XMLID_1029_">
		<path id="XMLID_122_" class="st8" d="M115.1,187.1c-9.9,4.5-21.2,7-33.1,7c-38.3,0-69.8-26.2-73.6-59.7c-0.3,2.4-0.4,4.8-0.4,7.4    v7.7c0,40.1,32.8,65.2,72.9,65.2h2.1"></path>
	</g>
	<g id="XMLID_1030_">
		<path id="XMLID_120_" class="st8" d="M151.7,173c-7.3,3.3-15.3,5.6-23.7,6.7"></path>
	</g>
	<g id="XMLID_1032_">
		<polygon id="XMLID_118_" class="st5" points="176,28.7 182.4,26.8 180.5,33.1 182.4,39.5 176,37.6 169.7,39.5 171.6,33.1     169.7,26.8   "></polygon>
	</g>
	<g id="XMLID_1051_">
		<polygon id="XMLID_115_" class="st5" points="41.2,27.8 52.3,33.9 41.2,40 35.1,51.1 29,40 17.8,33.9 29,27.8 35.1,16.7   "></polygon>
	</g>
	<g id="XMLID_1033_">
		<path id="XMLID_3_" class="st2" d="M339.6,264.3H24.4V211c0-1.6,1.3-2.9,2.9-2.9s2.9,1.3,2.9,2.9v47.6h303.7V106.1H202.1    c-1.6,0-2.9-1.3-2.9-2.9c0-1.6,1.3-2.9,2.9-2.9h137.5V264.3z"></path>
	</g>
	<g id="XMLID_1034_">
		<path id="XMLID_2_" class="st2" d="M303.6,246.2H59.3l-0.7-1.9c-2.7-7.4-9.2-13.1-16.9-14.7l-2.3-0.5v-9.9c0-1.6,1.3-2.9,2.9-2.9    c1.6,0,2.9,1.3,2.9,2.9v5.3c8,2.4,14.6,8.3,18.1,15.9h236.4c3.6-8,10.6-14,19.1-16.2v-80.9c-9.6-2.5-17.2-9.7-20.2-19.2h-95.4    c-1.6,0-2.9-1.3-2.9-2.9s1.3-2.9,2.9-2.9H303l0.5,2.2c2.1,9.1,9.4,16,18.6,17.6l2.4,0.4V229l-2.4,0.4c-8.1,1.4-15,7.1-17.8,14.9    L303.6,246.2z"></path>
	</g>
</g>
</svg>