<svg xmlns="http://www.w3.org/2000/svg" xmlns:xlink="http://www.w3.org/1999/xlink" id="Capa_1" x="0px" y="0px" viewBox="0 0 150 150" style="enable-background:new 0 0 150 150;" xml:space="preserve"><style type="text/css">	.st0{fill:none;stroke:#595959;stroke-width:2.12;stroke-linecap:round;stroke-linejoin:round;stroke-miterlimit:10;}	.st1{fill:#00B0FF;}	.st2{fill:#5E5E5E;}</style><g id="XMLID_11721_">	<path class="st0" d="M32.8,14.8"></path></g><g id="XMLID_11708_">	<g id="XMLID_94_">		<path class="st1" d="M95.1,105.1H70.8c-1.2,0-2.2-1-2.2-2.2s1-2.2,2.2-2.2h22.1V47.6c0-5.6-4.6-10.1-10.2-10.1H40.7   c-5.6,0-10.1,4.6-10.1,10.1c0,1.2-1,2.2-2.2,2.2H6.4c-1.2,0-2.2-1-2.2-2.2c0-1.2,1-2.2,2.2-2.2h19.9c1.1-7,7.1-12.3,14.3-12.3   h42.1c8,0,14.5,6.5,14.5,14.5V103C97.2,104.2,96.3,105.1,95.1,105.1z"></path>	</g>	<g id="XMLID_95_">		<path class="st1" d="M28.4,72.8H16.5c-1.2,0-2.2-1-2.2-2.2s1-2.2,2.2-2.2h9.7V58.1c0-1.2,1-2.2,2.2-2.2c1.2,0,2.2,1,2.2,2.2v12.5   C30.5,71.8,29.6,72.8,28.4,72.8z"></path>	</g>	<g id="XMLID_90_">		<path class="st1" d="M39.4,105.1c-7.3,0-13.2-5.9-13.2-13.2v-9.1c0-1.2,1-2.2,2.2-2.2c1.2,0,2.2,1,2.2,2.2v9.1   c0,4.9,4,8.9,8.9,8.9c1.2,0,2.2,1,2.2,2.2S40.6,105.1,39.4,105.1z"></path>	</g>	<g id="XMLID_11715_">		<path class="st2" d="M51.5,116.9c-7.9,0-14.3-6.4-14.3-14.3s6.4-14.3,14.3-14.3c7.9,0,14.3,6.4,14.3,14.3S59.3,116.9,51.5,116.9z    M51.5,92.7c-5.5,0-9.9,4.4-9.9,9.9c0,5.5,4.4,9.9,9.9,9.9s9.9-4.4,9.9-9.9C61.4,97.1,56.9,92.7,51.5,92.7z"></path>	</g>	<g id="XMLID_11714_">		<circle class="st2" cx="51.5" cy="102.6" r="4.6"></circle>	</g>	<g id="XMLID_92_">		<circle class="st2" cx="116.4" cy="102.6" r="4.6"></circle>	</g>	<g id="XMLID_11711_">		<path class="st2" d="M139.7,105.1h-3.1c-1.2,0-2.2-1-2.2-2.2s1-2.2,2.2-2.2h3.1c0.9,0,1.7-0.8,1.7-1.7v-24l-14.7-20   c-1.6-2.2-4.3-3.6-7.1-3.6H97.2v49.2h7c1.2,0,2.2,1,2.2,2.2s-1,2.2-2.2,2.2h-9.2c-1.2,0-2.2-1-2.2-2.2V49.4c0-1.2,1-2.2,2.2-2.2   h24.6c4.2,0,8.1,2,10.6,5.3l15.1,20.5c0.3,0.4,0.4,0.8,0.4,1.3v24.7C145.8,102.4,143,105.1,139.7,105.1z M133.1,76.9H105   c-1.2,0-2.2-1-2.2-2.2V56.9c0-1.2,1-2.2,2.2-2.2h13.1c2.8,0,5.4,1.4,6.9,3.7l9.9,15.1c0.4,0.7,0.5,1.5,0.1,2.2   C134.6,76.4,133.9,76.9,133.1,76.9z M107.2,72.5H129l-7.7-11.7c-0.7-1.1-1.9-1.8-3.3-1.8h-10.9V72.5z"></path>	</g>	<g id="XMLID_11710_">		<path class="st2" d="M116.4,116.9c-7.9,0-14.3-6.4-14.3-14.3s6.4-14.3,14.3-14.3s14.3,6.4,14.3,14.3S124.2,116.9,116.4,116.9z    M116.4,92.7c-5.5,0-9.9,4.4-9.9,9.9c0,5.5,4.4,9.9,9.9,9.9c5.5,0,9.9-4.4,9.9-9.9C126.3,97.1,121.8,92.7,116.4,92.7z"></path>	</g></g></svg>