<svg xmlns="http://www.w3.org/2000/svg" xmlns:xlink="http://www.w3.org/1999/xlink" id="Capa_1" x="0px" y="0px" viewBox="0 0 150 150" style="enable-background:new 0 0 150 150;" xml:space="preserve"><style type="text/css">	.st0{fill:none;stroke:#595959;stroke-width:2.12;stroke-linecap:round;stroke-linejoin:round;stroke-miterlimit:10;}	.st1{fill:#5E5E5E;}	.st2{fill:none;stroke:#5E5E5E;stroke-width:1.7;stroke-linecap:round;stroke-linejoin:round;stroke-miterlimit:10;}	.st3{fill:#00B0FF;}</style><g id="XMLID_11721_">	<path class="st0" d="M33.1,9.5"></path></g><g id="XMLID_1_">	<path class="st0" d="M20.1-125.5"></path></g><g id="XMLID_11622_">	<g id="XMLID_11641_">		<path class="st1" d="M121.1,98.5H95.7c-0.6,0-1.2-0.3-1.6-0.7c-0.4-0.4-0.6-1-0.6-1.6L98.4,26c0.1-1.1,1-2,2.2-2h14   c1.1,0,2.1,0.9,2.2,2l6.5,70.2c0.1,0.6-0.1,1.2-0.6,1.7C122.3,98.3,121.8,98.5,121.1,98.5z M98,94.2h20.8l-6.1-65.8h-10L98,94.2z"></path>	</g>	<g id="XMLID_11639_">		<g id="XMLID_11640_">			<path class="st1" d="M75.6,69.5c-1.1,0-2.1-0.8-2.2-2l-3.9-42.3h-10l-2.4,33.3c-0.1,1.2-1.1,2.1-2.3,2c-1.2-0.1-2.1-1.1-2-2.3    l2.6-35.3c0.1-1.1,1-2,2.2-2h14c1.1,0,2.1,0.9,2.2,2l4.1,44.3c0.1,1.2-0.8,2.3-2,2.4C75.7,69.5,75.7,69.5,75.6,69.5z"></path>		</g>	</g>	<g id="XMLID_11638_">		<path class="st1" d="M135.9,125.5H15.3c-1.2,0-2.2-1-2.2-2.2s1-2.2,2.2-2.2h120.6c1.2,0,2.2,1,2.2,2.2S137.1,125.5,135.9,125.5z"></path>	</g>	<g id="XMLID_11637_">		<path class="st1" d="M86.4,125.5H21c-1.2,0-2.2-1-2.2-2.2V45.1c0-0.7,0.4-1.4,0.9-1.8c0.6-0.4,1.3-0.5,2-0.2L35,48.2   c1.1,0.4,1.7,1.7,1.3,2.8c-0.4,1.1-1.7,1.7-2.8,1.3l-10.3-3.9v72.9h61.1V72.8L40.7,55c-1.1-0.5-1.6-1.7-1.2-2.8   c0.5-1.1,1.7-1.6,2.8-1.2l44.9,18.4c0.8,0.3,1.3,1.1,1.3,2v52C88.6,124.6,87.6,125.5,86.4,125.5z"></path>	</g>	<g id="XMLID_11636_">		<path class="st1" d="M129.1,125.5H86.4c-1.2,0-2.2-1-2.2-2.2v-27c0-1.2,1-2.2,2.2-2.2h42.7c1.2,0,2.2,1,2.2,2.2v27   C131.3,124.6,130.3,125.5,129.1,125.5z M88.6,121.2h38.3V98.5H88.6V121.2z"></path>	</g>	<g id="XMLID_11634_">		<path class="st1" d="M73.2,43.1h-17c-1.2,0-2.2-1-2.2-2.2c0-1.2,1-2.2,2.2-2.2h17c1.2,0,2.2,1,2.2,2.2   C75.3,42.1,74.4,43.1,73.2,43.1z"></path>	</g>	<g id="XMLID_11633_">		<path class="st2" d="M59.8,61.2"></path>	</g>	<g id="XMLID_11632_">		<path class="st2" d="M75.1,61.2"></path>	</g>	<g id="XMLID_11631_">		<path class="st1" d="M116.7,48.6H99.2c-1.2,0-2.2-1-2.2-2.2s1-2.2,2.2-2.2h17.5c1.2,0,2.2,1,2.2,2.2S117.9,48.6,116.7,48.6z"></path>	</g>	<g id="XMLID_11628_">		<path class="st1" d="M65.3,125.5c-1.2,0-2.2-1-2.2-2.2v-17.3H43.7v17.3c0,1.2-1,2.2-2.2,2.2s-2.2-1-2.2-2.2v-19.5   c0-1.2,1-2.2,2.2-2.2h23.8c1.2,0,2.2,1,2.2,2.2v19.5C67.4,124.6,66.5,125.5,65.3,125.5z"></path>	</g>	<g id="XMLID_11625_">		<path class="st3" d="M75,94.8H33.2c-1.2,0-2.2-1-2.2-2.2V64c0-0.7,0.4-1.4,0.9-1.8c0.6-0.4,1.3-0.5,2-0.2l41.9,15.9   c0.8,0.3,1.4,1.1,1.4,2v12.7C77.2,93.8,76.3,94.8,75,94.8z M35.4,90.4h37.5v-9L35.4,67.2V90.4z"></path>	</g>	<g id="XMLID_11624_">		<path class="st3" d="M46.4,94.8c-1.2,0-2.2-1-2.2-2.2V69.3c0-1.2,1-2.2,2.2-2.2c1.2,0,2.2,1,2.2,2.2v23.3   C48.6,93.8,47.6,94.8,46.4,94.8z"></path>	</g>	<g id="XMLID_11623_">		<path class="st3" d="M61.7,94.8c-1.2,0-2.2-1-2.2-2.2V75.5c0-1.2,1-2.2,2.2-2.2c1.2,0,2.2,1,2.2,2.2v17.1   C63.9,93.8,62.9,94.8,61.7,94.8z"></path>	</g></g></svg>