<svg xmlns="http://www.w3.org/2000/svg" xmlns:xlink="http://www.w3.org/1999/xlink" id="Capa_1" x="0px" y="0px" viewBox="0 0 150 150" style="enable-background:new 0 0 150 150;" xml:space="preserve"><style type="text/css">	.st0{fill:none;stroke:#595959;stroke-width:2.12;stroke-linecap:round;stroke-linejoin:round;stroke-miterlimit:10;}	.st1{fill:#5E5E5E;}	.st2{fill:none;stroke:#5E5E5E;stroke-width:1.7;stroke-linecap:round;stroke-linejoin:round;stroke-miterlimit:10;}	.st3{fill:#00B0FF;}</style><g id="XMLID_11721_">	<path class="st0" d="M45.3-298.1"></path></g><g id="XMLID_3478_">	<g id="XMLID_98_">		<path class="st1" d="M62.4,123.8c-0.4,0-0.8-0.1-1.1-0.3l-40.4-23.3c-0.7-0.4-1.1-1.1-1.1-1.9V51.7c0-0.8,0.4-1.5,1.1-1.9   l40.4-23.3c0.7-0.4,1.5-0.4,2.2,0l40.4,23.3c0.7,0.4,1.1,1.1,1.1,1.9v18.1H128c1.2,0,2.2,1,2.2,2.2s-1,2.2-2.2,2.2h-25.3   c-1.2,0-2.2-1-2.2-2.2V53l-38.2-22L24.2,53V97l38.2,22l38.2-22v-2.1c0-1.2,1-2.2,2.2-2.2s2.2,1,2.2,2.2v3.4c0,0.8-0.4,1.5-1.1,1.9   l-40.4,23.3C63.1,123.7,62.7,123.8,62.4,123.8z"></path>	</g>	<g id="XMLID_97_">		<path class="st1" d="M118.6,89.3h-15.9c-1.2,0-2.2-1-2.2-2.2v-7.6c0-1.2,1-2.2,2.2-2.2s2.2,1,2.2,2.2v5.4h13.7   c1.2,0,2.2,1,2.2,2.2C120.8,88.3,119.8,89.3,118.6,89.3z"></path>	</g>	<g id="XMLID_3484_">		<path class="st2" d="M22,70.1"></path>	</g>	<g id="XMLID_3483_">		<path class="st3" d="M50.1,88.5c-0.4,0-0.7-0.1-1.1-0.3l-16.2-9.4c-1-0.6-1.4-1.9-0.8-3c0.6-1,1.9-1.4,3-0.8l16.2,9.4   c1,0.6,1.4,1.9,0.8,3C51.5,88.1,50.8,88.5,50.1,88.5z"></path>	</g>	<g id="XMLID_3482_">		<path class="st2" d="M62.4,93.4"></path>	</g>	<g id="XMLID_3481_">		<path class="st1" d="M62.4,77.2c-0.4,0-0.8-0.1-1.1-0.3L20.9,53.6c-1-0.6-1.4-1.9-0.8-3c0.6-1,1.9-1.4,3-0.8l39.3,22.7l39.3-22.7   c1-0.6,2.4-0.2,3,0.8c0.6,1,0.2,2.4-0.8,3L63.4,76.9C63.1,77.1,62.7,77.2,62.4,77.2z"></path>	</g>	<g id="XMLID_3480_">		<path class="st1" d="M62.4,123.8c-1.2,0-2.2-1-2.2-2.2V75c0-1.2,1-2.2,2.2-2.2c1.2,0,2.2,1,2.2,2.2v46.6   C64.5,122.8,63.6,123.8,62.4,123.8z"></path>	</g>	<g id="XMLID_3479_">		<path class="st1" d="M42.2,65.5c-0.8,0-1.5-0.4-1.9-1.1c-0.6-1-0.2-2.4,0.8-3l40.4-23.3c1-0.6,2.4-0.2,3,0.8c0.6,1,0.2,2.4-0.8,3   L43.3,65.2C42.9,65.4,42.5,65.5,42.2,65.5z"></path>	</g></g><g>	<path class="st1" d="M116.9,60.6h-14.2c-1.2,0-2.2-1-2.2-2.2s1-2.2,2.2-2.2h14.2c1.2,0,2.2,1,2.2,2.2S118.1,60.6,116.9,60.6z"></path></g></svg>