<svg xmlns="http://www.w3.org/2000/svg" xmlns:xlink="http://www.w3.org/1999/xlink" id="Capa_1" x="0px" y="0px" viewBox="0 0 754.1 381.9" style="enable-background:new 0 0 754.1 381.9;" xml:space="preserve"><style type="text/css">	.st0{fill:url(#SVGID_1_);}	.st1{opacity:0.15;fill:#FFFFFF;enable-background:new    ;}	.st2{fill:url(#SVGID_2_);}	.st3{fill:#0065D2;}	.st4{fill:#4DA874;}</style><g>	<g>		<g>			<g>									<linearGradient id="SVGID_1_" gradientUnits="userSpaceOnUse" x1="445.4784" y1="340.8083" x2="585.8076" y2="233.2486" gradientTransform="matrix(1 0 0 -1 0 381.9)">					<stop offset="0" style="stop-color:#9A8DFF"></stop>					<stop offset="0.4906" style="stop-color:#C773FF"></stop>					<stop offset="1" style="stop-color:#FF38FF"></stop>				</linearGradient>				<ellipse class="st0" cx="515.6" cy="94.9" rx="89.6" ry="86.3"></ellipse>									<ellipse transform="matrix(0.6251 -0.7805 0.7805 0.6251 119.8883 436.9572)" class="st1" cx="514.8" cy="93.7" rx="88" ry="25.8"></ellipse>									<ellipse transform="matrix(0.5417 -0.8405 0.8405 0.5417 158.6866 476.5273)" class="st1" cx="516.4" cy="92.7" rx="27" ry="89.1"></ellipse>			</g>		</g>		<g>							<linearGradient id="SVGID_2_" gradientUnits="userSpaceOnUse" x1="445.4784" y1="340.8083" x2="585.8076" y2="233.2486" gradientTransform="matrix(1 0 0 -1 0 381.9)">				<stop offset="0" style="stop-color:#00C5CD"></stop>				<stop offset="0.3755" style="stop-color:#0084D1"></stop>				<stop offset="0.5178" style="stop-color:#006AD2"></stop>				<stop offset="1" style="stop-color:#66659C"></stop>			</linearGradient>			<ellipse class="st2" cx="515.6" cy="94.9" rx="89.6" ry="86.3"></ellipse>							<ellipse transform="matrix(0.6251 -0.7805 0.7805 0.6251 119.8883 436.9572)" class="st1" cx="514.8" cy="93.7" rx="88" ry="25.8"></ellipse>							<ellipse transform="matrix(0.5417 -0.8405 0.8405 0.5417 158.6866 476.5273)" class="st1" cx="516.4" cy="92.7" rx="27" ry="89.1"></ellipse>		</g>	</g>	<g>		<path class="st3" d="M121.1,269.3H55.4l-13.6,30.5H17l61-130H98l61,130h-24.5L121.1,269.3z M112.9,250.9l-24.7-55.3l-24.7,55.3   H112.9z"></path>		<path class="st3" d="M246.8,213.2c6.3,4,11.3,9.5,14.7,16.7c3.5,7.2,5.3,15.5,5.3,24.8s-1.7,17.5-5.3,24.6   c-3.5,7-8.4,12.4-14.6,16.2s-13.5,5.7-21.7,5.7c-6.6,0-12.6-1.4-17.8-4c-5.3-2.7-9.3-6.4-12-11.2v47h-24V209.5H195v13.6   c2.8-5.1,6.9-8.9,12.1-11.7c5.3-2.8,11.4-4.1,18.1-4.1C233.3,207.2,240.5,209.3,246.8,213.2z M236.5,275.8   c4.2-5,6.3-12.1,6.3-21.2c0-9.4-2.1-16.6-6.3-21.8c-4.2-5.2-10.1-7.7-17.6-7.7c-7.6,0-13.6,2.5-17.7,7.5   c-4.1,5.1-6.2,12.2-6.2,21.6c0,9.2,2.1,16.4,6.2,21.4c4.1,5.1,10,7.5,17.7,7.5C226.4,283.3,232.3,280.8,236.5,275.8z"></path>		<path class="st3" d="M286.5,169.7h24v130h-24V169.7z"></path>		<path class="st3" d="M360.2,167.6v22.7h-26.5v-22.7H360.2z M335.1,209.5h24v90.2h-24V209.5z"></path>		<path class="st3" d="M440.5,283.3l-1.1,17.1c-3.8,0.4-7.4,0.6-10.5,0.6c-13.2,0-22.8-2.9-29.1-8.7c-6.2-5.8-9.4-14.5-9.4-26.1   v-39.2h-18.1v-17.3h18v-27h24v27h24.7v17.3h-24.7v38.9c0,12.1,5.8,18,17.4,18C434.5,283.8,437.3,283.6,440.5,283.3z"></path>		<path class="st3" d="M536.6,258.8h-63.8c0.8,8.4,3.3,14.5,7.8,18.6c4.5,4,10.9,6.1,19.1,6.1c10.3,0,19.8-3.2,28.4-9.6l6.9,15.8   c-4.3,3.4-9.8,6.2-16.3,8.3c-6.6,2.1-13.2,3.1-19.8,3.1c-15.3,0-27.4-4.1-36.3-12.5c-8.9-8.4-13.3-19.8-13.3-34.3   c0-9.2,1.9-17.4,5.7-24.6c3.8-7.1,9.3-12.7,16.1-16.6c7-4,14.8-5.9,23.7-5.9c12.9,0,23.1,4,30.6,12c7.5,8,11.2,19,11.2,33   L536.6,258.8L536.6,258.8z M479.9,229.4c-3.9,4-6.3,9.6-7.2,16.9H516c-0.3-7.5-2.2-13.2-5.7-17c-3.5-3.9-8.6-5.8-14.9-5.8   C489,223.5,483.8,225.5,479.9,229.4z"></path>		<path class="st3" d="M573.2,295.5c-7.3-3.8-12.7-9.2-16.5-16.2s-5.7-15.2-5.7-24.6s2-17.6,6-24.8c4-7.2,9.7-12.8,17.1-16.7   c7.4-4,16-5.9,25.7-5.9c6.6,0,13.1,1,19.4,3c6.3,2,11.4,4.8,15.2,8.2l-6.9,16.2c-3.9-3-8.1-5.4-12.5-7c-4.4-1.6-8.8-2.4-13.1-2.4   c-8.3,0-14.7,2.5-19.3,7.5c-4.6,5-6.9,12.1-6.9,21.5c0,9.2,2.3,16.3,6.9,21.4c4.6,5,11.1,7.5,19.3,7.5c4.3,0,8.7-0.8,13.1-2.4   c4.4-1.6,8.6-4,12.5-7l6.9,16c-4.1,3.6-9.4,6.4-15.7,8.4c-6.4,2-13,3-19.9,3C588.9,301.2,580.4,299.3,573.2,295.5z"></path>		<path class="st3" d="M728.9,216.5c5.4,6.2,8.2,15.5,8.2,27.9v55.3h-23.9v-54c0-7-1.3-12.1-4.1-15.3c-2.8-3.2-7.1-4.8-12.9-4.8   c-6.9,0-12.4,2.1-16.5,6.3c-4.1,4.1-6.2,9.8-6.2,16.8v51.1h-24v-130h24v52.4c3.2-4.8,7.5-8.5,12.7-11c5.3-2.5,11.2-3.8,17.7-3.8   C715.1,207.2,723.5,210.4,728.9,216.5z"></path>	</g>	<g>		<path class="st4" d="M284.9,320.7h18.2c6,0,10.7,1.2,13.8,3.6c3.2,2.4,4.8,5.7,4.8,9.8c0,4.9-2.4,8.7-7.1,11.5   c3.3,0.7,6.1,2.2,8.2,4.6c2.1,2.4,3.2,5.1,3.2,8.1c0,4.4-2,7.9-6.1,10.4c-4.1,2.5-10.1,3.7-18.1,3.7h-17L284.9,320.7L284.9,320.7z    M294.4,328.7V342h7c3.9,0,6.7-0.6,8.5-1.6c1.7-1.1,2.6-2.8,2.6-5c0-2.3-0.9-4-2.6-5.1c-1.7-1.1-4.6-1.6-8.5-1.6L294.4,328.7   L294.4,328.7z M294.4,349.8v14.6h6.2c5.6,0,9.6-0.5,12-1.5c2.6-1.1,3.8-2.9,3.8-5.5c0-2.5-1.2-4.4-3.7-5.7   c-2.8-1.3-6.9-1.8-12.1-1.8L294.4,349.8z"></path>		<path class="st4" d="M351.5,320.7h9.6v51.8h-9.6V320.7z"></path>		<path class="st4" d="M413.1,320.1c5.1,0,9.6,1.1,13.5,3.2c4.1,2.1,7.3,5.2,9.6,9.2c2.3,4,3.4,8.6,3.4,13.6c0,5.2-1.1,9.8-3.4,13.9   c-2.4,4.1-5.5,7.4-9.6,9.7c-4.1,2.3-8.7,3.4-13.8,3.4c-4.5,0-8.8-1-12.8-3.1c-4.3-2.1-7.6-5.2-9.9-9.2c-2.4-4-3.5-8.8-3.5-14.2   c0-5.2,1.1-9.8,3.5-13.8c2.4-4,5.5-7.2,9.6-9.4C403.7,321.2,408.2,320.1,413.1,320.1z M412.7,328.6c-3,0-5.6,0.6-8,1.7   c-2.7,1.3-4.8,3.3-6.2,6s-2.2,5.9-2.2,9.6c0,3.7,0.8,6.9,2.3,9.7c1.5,2.9,3.5,5,6.1,6.5c2.6,1.5,5.5,2.3,8.7,2.3   c2.6,0,5.3-0.6,8-1.8c2.7-1.3,4.8-3.3,6.2-6.1s2.2-6.1,2.2-9.8c0-4-0.9-7.4-2.6-10.2c-1.5-2.5-3.6-4.3-6.2-5.7   C418.5,329.3,415.7,328.6,412.7,328.6z"></path>		<path class="st4" d="M465,321.6h9.6v43.4h25.7v8.4h-35.1L465,321.6L465,321.6z"></path>		<path class="st4" d="M545.9,321.6h9.3l20.2,51.8h-9.6l-5.4-13.6h-19.9l-5.3,13.6h-9.4L545.9,321.6z M557.2,351.5l-6.9-19.4   l-6.9,19.4H557.2z"></path>		<path class="st4" d="M600.9,321.6h18.2c6,0,10.7,1.2,13.8,3.6c3.2,2.4,4.8,5.7,4.8,9.8c0,4.9-2.4,8.7-7.1,11.5   c3.3,0.7,6.1,2.2,8.2,4.6s3.2,5.1,3.2,8.1c0,4.4-2,7.9-6.1,10.4c-4.1,2.5-10.1,3.7-18.1,3.7h-17L600.9,321.6L600.9,321.6z    M610.5,329.6v13.3h7c3.9,0,6.7-0.6,8.5-1.6c1.7-1.1,2.6-2.8,2.6-5c0-2.3-0.9-4-2.6-5.1c-1.7-1.1-4.6-1.6-8.5-1.6L610.5,329.6   L610.5,329.6z M610.5,350.7v14.6h6.2c5.6,0,9.6-0.5,12-1.5c2.6-1.1,3.8-2.9,3.8-5.5c0-2.5-1.2-4.4-3.7-5.7   c-2.8-1.3-6.9-1.8-12.1-1.8L610.5,350.7z"></path>	</g></g></svg>