<svg xmlns="http://www.w3.org/2000/svg" xmlns:xlink="http://www.w3.org/1999/xlink" id="Capa_1" x="0px" y="0px" viewBox="0 0 150 150" style="enable-background:new 0 0 150 150;" xml:space="preserve"><style type="text/css">	.st0{fill:#5E5E5E;}	.st1{fill:#00B0FF;}</style><g>	<g>		<g>			<path class="st0" d="M66.6,121c-0.1,0-0.1,0-0.2,0l0.3-4.3c1.1,0.1,2,1.1,2,2.2c0,0.1,0,0.1,0,0.2C68.6,120.2,67.7,121,66.6,121z    "></path>		</g>		<g>			<path class="st0" d="M54,117.9c-0.3,0-0.6-0.1-0.8-0.2l-0.5-0.2c-0.8-0.4-1.3-1.2-1.3-2c0-0.3,0.1-0.6,0.2-0.8    c0.5-1.1,1.7-1.6,2.8-1.2l0.5,0.2c0.8,0.4,1.3,1.2,1.3,2c0,0.3-0.1,0.6-0.2,0.8C55.7,117.4,54.9,117.9,54,117.9z"></path>		</g>		<g>			<path class="st0" d="M58,119.3c-0.2,0-0.4,0-0.6-0.1l0.6-2.1l-0.8,2l0.4-2.1l0.6-2.1l-0.4,2.1l0.8-2c0.9,0.3,1.5,1.1,1.5,2.1    c0,0.2,0,0.4-0.1,0.6C59.8,118.7,59,119.3,58,119.3z"></path>		</g>		<g>			<path class="st0" d="M62.2,120.4c-0.1,0-0.3,0-0.4,0l0,0l0.2-2.1l0.4-2.1c1,0.2,1.8,1.2,1.8,2.2c0,0.1,0,0.3,0,0.4    C64,119.6,63.2,120.4,62.2,120.4z"></path>		</g>		<g>			<path class="st0" d="M50.2,116.1c-0.3,0-0.7-0.1-1-0.2l-0.7-0.4c-1-0.6-1.4-1.9-0.8-3c0.6-1,1.9-1.4,3-0.8l0.6,0.3    c0.7,0.4,1.2,1.1,1.2,1.9c0,0.3-0.1,0.7-0.2,1C51.7,115.7,51,116.1,50.2,116.1z"></path>		</g>		<g>			<path class="st0" d="M40,108.6c-0.5,0-1.1-0.2-1.5-0.6l-0.3-0.3c-0.2-0.2-0.4-0.4-0.6-0.6c-0.4-0.4-0.6-1-0.6-1.5    c0-0.6,0.2-1.1,0.6-1.5c0.9-0.8,2.2-0.8,3.1,0l0.8,0.8c0.4,0.4,0.7,1,0.7,1.6c0,0.5-0.2,1.1-0.6,1.5    C41.1,108.4,40.5,108.6,40,108.6z"></path>		</g>		<g>			<path class="st0" d="M43.2,111.5c-0.5,0-1-0.2-1.4-0.5l-0.3-0.2c-0.2-0.2-0.5-0.4-0.7-0.5c-0.5-0.4-0.8-1-0.8-1.7    c0-0.5,0.2-1,0.5-1.4c0.8-0.9,2.1-1,3.1-0.3l0.8,0.7c0.9,0.8,1.1,2.1,0.3,3.1C44.4,111.2,43.8,111.5,43.2,111.5z"></path>		</g>		<g>			<path class="st0" d="M71.1,121.3c-1.2,0-2.2-1-2.2-2.2s1-2.2,2.2-2.2h0c1.2,0,2.2,1,2.2,2.2S72.3,121.3,71.1,121.3z"></path>		</g>		<g>			<path class="st0" d="M46.6,113.9c-0.4,0-0.8-0.1-1.2-0.4l-0.9-0.6c-0.6-0.4-0.9-1.1-0.9-1.8c0-0.4,0.1-0.9,0.4-1.2    c0.7-1,2-1.2,3-0.6l0.8,0.5c0.6,0.4,1,1.1,1,1.8c0,0.4-0.1,0.8-0.4,1.2C48,113.6,47.3,113.9,46.6,113.9z"></path>		</g>		<g>			<path class="st0" d="M80,120.4c-1,0-2-0.7-2.2-1.8c0-0.1,0-0.3,0-0.4c0-1,0.7-1.9,1.7-2.1l0.7,2.1l0.4,2.1c0,0-0.2,0-0.2,0    C80.3,120.3,80.2,120.4,80,120.4z"></path>		</g>		<g>			<path class="st0" d="M84.3,119.3c-1,0-1.9-0.6-2.2-1.5c-0.1-0.2-0.1-0.4-0.1-0.7c0-0.9,0.5-1.7,1.5-2l0.4-0.1    c1.2-0.3,2.4,0.3,2.7,1.5c0.1,0.2,0.1,0.4,0.1,0.6c0,0.9-0.6,1.8-1.6,2.1c0,0-0.2,0.1-0.2,0.1C84.7,119.2,84.5,119.3,84.3,119.3z    "></path>		</g>		<g>			<path class="st0" d="M39.1,107.9c-0.6,0-1.1-0.2-1.5-0.6c-8.7-8.8-13.5-20.5-13.5-32.9c0-25.9,21.1-47,47-47s47,21.1,47,47    c0,7-1.5,13.8-4.6,20.2c-0.4,0.9-1.5,1.4-2.5,1.2l-2.7-0.7c-0.5-0.1-1-0.5-1.3-1l-6.3-10.1l-5.9,9.5c-0.3,0.5-0.9,0.9-1.5,1    c-0.6,0.1-1.2-0.1-1.7-0.5c-5.8-4.7-12.9-7.3-20.4-7.3c-13.1,0-24.8,7.8-29.9,19.9c-0.3,0.7-0.9,1.2-1.6,1.3    C39.4,107.8,39.3,107.9,39.1,107.9z M71.1,31.7c-23.5,0-42.6,19.1-42.6,42.6c0,10.2,3.6,19.8,10.1,27.5    c6.3-12,18.8-19.5,32.5-19.5c7.6,0,15,2.4,21.2,6.7l6.5-10.4c0.4-0.6,1.1-1,1.8-1l0,0c0.7,0,1.4,0.4,1.8,1l7.8,12.3    c2.3-5.3,3.4-10.9,3.4-16.7C113.7,50.8,94.6,31.7,71.1,31.7z"></path>		</g>		<g>			<path class="st0" d="M75.6,121c-1.1,0-2.1-0.9-2.2-2c0,0,0-0.1,0-0.1c0-1.1,0.8-2.1,2-2.2c1.2-0.1,2.3,0.8,2.4,2    c0,0.1,0,0.1,0,0.2c0,1.1-0.8,2.1-2,2.1C75.8,121,75.7,121,75.6,121z"></path>		</g>		<g>			<path class="st0" d="M71.1,79c-10.5,0-19-8.5-19-19s8.5-19,19-19c10.5,0,19,8.5,19,19S81.6,79,71.1,79z M71.1,45.3    c-8.1,0-14.7,6.6-14.7,14.7S63,74.6,71.1,74.6c8.1,0,14.7-6.6,14.7-14.7S79.2,45.3,71.1,45.3z"></path>		</g>		<g>			<path class="st0" d="M71.1,121.3c-1.2,0-2.2-1-2.2-2.2s1-2.2,2.2-2.2c1.4,0,2.8-0.1,4.2-0.2c0,0,0,0,0.1,0l0,0    c1.2-0.1,2.3,0.8,2.4,1.9c0.1,1.2-0.7,2.3-1.9,2.4l0,0l0,0c0,0,0,0-0.1,0C74.2,121.2,72.6,121.3,71.1,121.3z"></path>		</g>		<g>			<path class="st0" d="M80.2,120.3c-1,0-1.9-0.7-2.1-1.7c0-0.1,0-0.3,0-0.4c0-1,0.7-1.9,1.7-2.1c0,0,0,0,0,0c1.2-0.2,2.4-0.6,3.8-1    c1.2-0.3,2.4,0.3,2.7,1.4c0.3,1.1-0.3,2.4-1.4,2.7c0,0,0,0,0,0l0,0c0,0,0,0,0,0c-1.4,0.4-2.8,0.8-4.2,1.1    C80.4,120.3,80.3,120.3,80.2,120.3z"></path>		</g>		<g>			<path class="st0" d="M49.5,115.7c-0.4,0-0.7-0.1-1-0.3l0,0l0,0c0,0,0,0,0,0c-0.2-0.1-0.5-0.3-0.7-0.4c-0.8-0.5-1.6-1-2.4-1.5    c-1-0.7-1.3-2-0.6-3c0.7-1,2-1.3,3-0.6c0,0,0,0,0,0l0,0l0,0c0.7,0.5,1.4,0.9,2.1,1.3c0.2,0.1,0.4,0.2,0.6,0.4c0,0,0,0,0,0l0,0    c1.1,0.6,1.4,1.9,0.9,3C51,115.3,50.3,115.7,49.5,115.7z"></path>		</g>		<g>			<path class="st0" d="M53.5,117.7c-0.3,0-0.6-0.1-0.9-0.2h0l0,0c0,0,0,0,0,0c-0.6-0.2-1.1-0.5-1.7-0.8c-0.6-0.3-1.2-0.6-1.7-0.9    c-1.1-0.6-1.5-1.9-0.9-2.9c0.6-1.1,1.9-1.5,2.9-0.9c0.5,0.3,1,0.5,1.6,0.8h0c0,0,0,0,0,0c0.5,0.2,1,0.5,1.6,0.7    c1.1,0.5,1.6,1.8,1.1,2.9C55.1,117.2,54.3,117.7,53.5,117.7z"></path>		</g>		<g>			<path class="st0" d="M71.1,121.3c-1.6,0-3.1-0.1-4.7-0.2c-1.1-0.1-2-1.1-2-2.2c0-0.1,0-0.1,0-0.2c0.1-1.2,1.2-2.1,2.4-1.9    c1.4,0.1,2.9,0.2,4.3,0.2c1.2,0,2.2,1,2.2,2.2S72.3,121.3,71.1,121.3z"></path>		</g>		<g>			<path class="st0" d="M66.5,121c-0.1,0-0.1,0-0.2,0c-1.5-0.1-3-0.4-4.5-0.7c-1-0.2-1.7-1.1-1.7-2.1c0-0.1,0-0.3,0-0.4    c0.2-1.2,1.4-1.9,2.6-1.7c1.4,0.3,2.7,0.5,4.1,0.6c1.1,0.1,2,1.1,2,2.2c0,0.1,0,0.1,0,0.2C68.5,120.2,67.6,121,66.5,121z"></path>		</g>		<g>			<path class="st0" d="M62,120.3c-0.1,0-0.3,0-0.4,0c0,0,0,0,0,0l0,0c0,0,0,0,0,0c-0.5-0.1-0.9-0.2-1.4-0.3    c-0.9-0.2-1.8-0.5-2.8-0.8c-1.1-0.3-1.8-1.6-1.4-2.7c0.3-1.1,1.6-1.8,2.7-1.4l0,0l0,0c0,0,0,0,0,0c0.8,0.3,1.7,0.5,2.4,0.7    c0.4,0.1,0.9,0.2,1.3,0.3c1.2,0.2,1.9,1.4,1.7,2.6C63.9,119.6,63,120.3,62,120.3z"></path>		</g>		<g>			<path class="st0" d="M75.7,121c-1.1,0-2-0.8-2.2-2c0-0.1,0-0.1,0-0.2c0-1.1,0.8-2,2-2.2c1.3-0.1,2.7-0.3,4.1-0.6    c1.2-0.2,2.3,0.5,2.6,1.7c0,0.1,0,0.3,0,0.4c0,1-0.7,1.9-1.7,2.1c-1.5,0.3-3,0.5-4.5,0.7C75.8,121,75.7,121,75.7,121z"></path>		</g>		<g>			<path class="st0" d="M57.6,119.2c-0.2,0-0.4,0-0.6-0.1c-1.2-0.4-2.5-0.8-3.8-1.4c-0.8-0.3-1.3-1.2-1.3-2c0-0.3,0.1-0.6,0.2-0.8    c0.5-1.1,1.7-1.6,2.8-1.2c1.1,0.5,2.3,0.9,3.5,1.3c1.1,0.4,1.8,1.6,1.4,2.7C59.4,118.6,58.6,119.2,57.6,119.2z"></path>		</g>		<g>			<path class="st0" d="M84.5,119.2c-0.9,0-1.8-0.6-2.1-1.5c-0.4-1.1,0.3-2.4,1.4-2.7c0,0,0.1,0,0.1,0c0.5-0.2,1.1-0.4,1.6-0.6    l0.6-0.2c0.7-0.3,1.5-0.2,2.1,0.3c0.6,0.4,0.9,1.1,0.9,1.9c0,0.9-0.6,1.6-1.4,1.9c-0.8,0.3-1.6,0.6-2.3,0.8c0,0-0.1,0-0.1,0    C84.9,119.2,84.7,119.2,84.5,119.2z"></path>		</g>		<g>			<path class="st0" d="M39.2,107.9c-1.2,0-2.2-1-2.2-2.2s1-2.2,2.2-2.2h0c1.2,0,2.2,1,2.2,2.2S40.4,107.9,39.2,107.9z"></path>		</g>		<g>			<path class="st0" d="M42.3,110.8c-0.5,0-1-0.2-1.4-0.5c-0.8-0.7-1.6-1.4-2.4-2.2c0,0,0,0,0,0h0c-0.9-0.8-0.9-2.2,0-3.1    c0.8-0.9,2.2-0.9,3.1,0c0.7,0.7,1.4,1.4,2.2,2c0,0,0,0,0,0c0.5,0.4,0.8,1,0.8,1.7c0,0.5-0.2,1-0.5,1.4    C43.5,110.5,42.9,110.8,42.3,110.8z"></path>		</g>		<g>			<path class="st0" d="M45.8,113.4c-0.4,0-0.9-0.1-1.2-0.4c-0.9-0.6-1.8-1.3-2.7-2c-0.5-0.4-0.8-1.1-0.8-1.7c0-0.5,0.2-1,0.5-1.4    c0.8-0.9,2.1-1.1,3.1-0.3c0.8,0.6,1.6,1.3,2.5,1.8c0.6,0.4,0.9,1.1,0.9,1.8c0,0.4-0.1,0.9-0.4,1.2    C47.1,113.1,46.4,113.4,45.8,113.4z"></path>		</g>		<g>			<path class="st0" d="M71.1,121.3c-1.6,0-3.1-0.1-4.7-0.2c-1.5-0.2-3.1-0.4-4.6-0.7c-1.6-0.3-2.9-0.7-4.4-1.1c0,0-0.4-0.1-0.4-0.1    c-1.2-0.4-2.5-0.8-3.8-1.4l-0.6-0.2c-1.2-0.5-2.3-1.1-3.5-1.7l-0.7-0.4c-1-0.6-2.1-1.2-3.1-1.9l-0.9-0.6c-0.9-0.6-1.8-1.3-2.7-2    l-0.3-0.2c-0.2-0.2-0.5-0.4-0.7-0.5c-0.8-0.7-1.6-1.4-2.4-2.2l-0.3-0.3c-0.2-0.2-0.4-0.4-0.6-0.6c-0.6-0.6-0.8-1.6-0.5-2.4    c5.8-13.7,19.1-22.6,33.9-22.6c8.4,0,16.6,2.9,23.2,8.2c0.8,0.7,1.1,1.9,0.5,2.8L94.3,94c-0.3,0.5-0.8,0.8-1.3,1l-11.6,2.9    l7.7,9.1c0.4,0.4,0.5,1,0.5,1.6l-0.5,7.8c-0.1,0.8-0.6,1.6-1.4,1.9l-0.5,0.2c-0.6,0.2-1.3,0.5-2,0.7c0,0-0.2,0.1-0.2,0.1    c-1.6,0.5-3,0.8-4.3,1.1c-1.7,0.3-3.2,0.6-4.7,0.7C74.2,121.2,72.6,121.3,71.1,121.3z M41.7,105.2c0.6,0.6,1.3,1.2,1.9,1.7    l0.8,0.7c0.8,0.6,1.6,1.3,2.5,1.8l0.8,0.5c0.9,0.6,1.8,1.2,2.8,1.7l0.6,0.3c1,0.5,2.1,1.1,3.1,1.5l0.5,0.2    c1.1,0.5,2.3,0.9,3.4,1.3l-0.3,2.2l0.6-2.1c1.3,0.4,2.6,0.7,3.8,1c1.6,0.3,3,0.5,4.3,0.7c3.1,0.3,5.8,0.3,8.7,0    c1.4-0.1,2.8-0.3,4.1-0.6c1.4-0.3,2.7-0.6,4-1l1,2l-0.6-2.1c0.3-0.1,0.6-0.2,0.9-0.3l0.4-5.5L75.8,98c-0.5-0.6-0.6-1.4-0.4-2.1    c0.2-0.7,0.8-1.3,1.5-1.4l11.4-2.8c-5.2-3.3-11.1-5-17.3-5C58.5,86.6,47.1,93.9,41.7,105.2z"></path>		</g>	</g>	<g id="XMLID_93_">		<path class="st1" d="M114.9,125.9c-0.3,0-0.6,0-0.8-0.2l-13.5-5.4l-13.5,5.4c-0.7,0.3-1.5,0.2-2.1-0.3c-0.6-0.4-0.9-1.2-0.9-1.9   l1-14.5L75.8,98c-0.5-0.6-0.6-1.4-0.4-2.1c0.2-0.7,0.8-1.3,1.5-1.4L91.1,91l7.7-12.3c0.8-1.3,2.9-1.3,3.7,0l7.7,12.3l14.1,3.5   c0.7,0.2,1.3,0.7,1.5,1.4c0.2,0.7,0.1,1.5-0.4,2.1l-9.3,11.1l1,14.5c0.1,0.7-0.3,1.5-0.9,1.9C115.8,125.8,115.3,125.9,114.9,125.9   z M100.6,115.8c0.3,0,0.6,0.1,0.8,0.2l11.1,4.5l-0.8-11.9c0-0.6,0.1-1.1,0.5-1.6l7.7-9.1L108.3,95c-0.5-0.1-1-0.5-1.3-1l-6.3-10.1   L94.3,94c-0.3,0.5-0.8,0.8-1.3,1l-11.6,2.9l7.7,9.1c0.4,0.4,0.5,1,0.5,1.6l-0.8,11.9l11.1-4.5   C100.1,115.9,100.3,115.8,100.6,115.8z"></path>	</g></g></svg>