<svg xmlns="http://www.w3.org/2000/svg" xmlns:xlink="http://www.w3.org/1999/xlink" id="Capa_1" x="0px" y="0px" viewBox="0 0 150 150" style="enable-background:new 0 0 150 150;" xml:space="preserve">
<style type="text/css">
	.st0{fill:#5E5E5E;}
	.st1{fill:#00B0FF;}
</style>
<g id="XMLID_135_">
	<g id="XMLID_137_">
		<path id="XMLID_146_" class="st0" d="M82,134.2H70c-1,0-1.9-0.6-2.2-1.5l-5.2-14.7l-6.8-2.8l-14.1,6.7c-0.9,0.4-1.9,0.2-2.6-0.5    l-8.4-8.4c-0.7-0.7-0.9-1.8-0.5-2.6l6.7-14.1L34,89.4l-14.7-5.2c-0.9-0.3-1.5-1.2-1.5-2.2V70c0-1,0.6-1.9,1.5-2.2L34,62.6l2.8-6.8    l-6.7-14.1c-0.4-0.9-0.2-1.9,0.5-2.6l8.4-8.4c0.7-0.7,1.8-0.9,2.6-0.5l14.1,6.7l6.8-2.8l5.2-14.7c0.3-0.9,1.2-1.5,2.2-1.5H82    c1,0,1.9,0.6,2.2,1.5L89.4,34l6.8,2.8l14.1-6.7c0.9-0.4,1.9-0.2,2.6,0.5l8.4,8.4c0.7,0.7,0.9,1.8,0.5,2.6l-6.7,14.1l2.8,6.8    l14.7,5.2c0.9,0.3,1.5,1.2,1.5,2.2v11.9c0,1-0.6,1.9-1.5,2.2l-14.7,5.2l-2.8,6.8l6.7,14.1c0.4,0.9,0.2,1.9-0.5,2.6l-8.4,8.4    c-0.7,0.7-1.8,0.9-2.6,0.5l-14.1-6.7l-6.8,2.8l-5.2,14.7C83.8,133.6,83,134.2,82,134.2z M71.7,129.5h8.7l5-14.2    c0.2-0.6,0.7-1.1,1.3-1.4l8.7-3.6c0.6-0.3,1.3-0.2,1.9,0l13.6,6.5l6.1-6.1l-6.5-13.6c-0.3-0.6-0.3-1.3,0-1.9l3.6-8.7    c0.3-0.6,0.7-1.1,1.4-1.3l14.2-5v-8.7l-14.2-5c-0.6-0.2-1.1-0.7-1.4-1.3l-3.6-8.7c-0.3-0.6-0.2-1.3,0-1.9l6.5-13.6l-6.1-6.1    l-13.6,6.5c-0.6,0.3-1.3,0.3-1.9,0l-8.7-3.6c-0.6-0.3-1.1-0.7-1.3-1.4l-5-14.2h-8.7l-5,14.2c-0.2,0.6-0.7,1.1-1.3,1.4l-8.7,3.6    c-0.6,0.3-1.3,0.2-1.9,0L41.2,35l-6.1,6.1l6.5,13.6c0.3,0.6,0.3,1.3,0,1.9l-3.6,8.7c-0.3,0.6-0.7,1.1-1.4,1.3l-14.2,5v8.7l14.2,5    c0.6,0.2,1.1,0.7,1.4,1.3l3.6,8.7c0.3,0.6,0.2,1.3,0,1.9l-6.5,13.6l6.1,6.1l13.6-6.5c0.6-0.3,1.3-0.3,1.9,0l8.7,3.6    c0.6,0.3,1.1,0.7,1.3,1.4L71.7,129.5z"></path>
	</g>
	<g id="XMLID_136_">
		<path id="XMLID_143_" class="st0" d="M76,97.1c-11.7,0-21.2-9.5-21.2-21.2c0-11.7,9.5-21.2,21.2-21.2c11.7,0,21.2,9.5,21.2,21.2    C97.2,87.6,87.7,97.1,76,97.1z M76,59.4c-9.1,0-16.5,7.4-16.5,16.5S66.9,92.5,76,92.5S92.5,85.1,92.5,76S85.1,59.4,76,59.4z"></path>
	</g>
	<g id="XMLID_180_">
		<path id="XMLID_133_" class="st1" d="M76,107.4c-17.3,0-31.4-14.1-31.4-31.4S58.7,44.6,76,44.6s31.4,14.1,31.4,31.4    S93.3,107.4,76,107.4z M76,49.2c-14.7,0-26.7,12-26.7,26.7c0,14.7,12,26.7,26.7,26.7s26.7-12,26.7-26.7    C102.7,61.2,90.7,49.2,76,49.2z"></path>
	</g>
</g>
</svg>