<svg xmlns="http://www.w3.org/2000/svg" xmlns:xlink="http://www.w3.org/1999/xlink" id="Capa_1" x="0px" y="0px" viewBox="0 0 150 150" style="enable-background:new 0 0 150 150;" xml:space="preserve">
<style type="text/css">
	.st0{fill:#5E5E5E;}
	.st1{fill:#00B0FF;}
</style>
<g id="XMLID_75_">
	<g id="XMLID_169_">
		<path id="XMLID_124_" class="st0" d="M65.8,115.2c-24.8,0-45-20.2-45-45s20.2-45,45-45c10.3,0,19.9,3.4,27.9,9.7    c1,0.8,1.2,2.3,0.4,3.3c-0.8,1-2.3,1.2-3.3,0.4c-7.2-5.7-15.8-8.7-25-8.7c-22.2,0-40.3,18.1-40.3,40.3s18.1,40.3,40.3,40.3    c5,0,12.2-2.5,21.4-7.3c1.1-0.6,2.5-0.2,3.1,1c0.6,1.1,0.2,2.5-1,3.1C79.3,112.6,71.6,115.2,65.8,115.2z"></path>
	</g>
	<g id="XMLID_175_">
		<path id="XMLID_121_" class="st1" d="M103.7,128.6c-0.7,0-1.5-0.4-1.9-1L77.7,94c-0.5-0.7-0.6-1.6-0.2-2.4    c0.4-0.8,1.2-1.3,2.1-1.3h11.1V25.7c0-1.3,1-2.3,2.3-2.3h21.3c1.3,0,2.3,1,2.3,2.3v64.6h11.1c0.9,0,1.7,0.5,2.1,1.3    c0.4,0.8,0.3,1.7-0.2,2.4l-24.1,33.6C105.2,128.2,104.5,128.6,103.7,128.6z M84.1,95l19.6,27.3L123.3,95h-8.9    c-1.3,0-2.3-1-2.3-2.3V28H95.4v64.6c0,1.3-1,2.3-2.3,2.3H84.1z"></path>
	</g>
	<g id="XMLID_154_">
		<g id="XMLID_182_">
			<path id="XMLID_103_" class="st1" d="M62,46.4c0-1.5,0-2.8,0-4.2c0-1.8,1.1-3,2.5-3c1.4,0,2.4,1.3,2.4,3.1c0,1.3,0,2.7,0,4.1     c3.8,0.4,6.9,1.8,9.2,4.8c2.3,2.9,2.9,6.2,2.6,9.7c-0.1,1.2-1.3,2.2-2.4,2.2c-1.1-0.1-2.2-1.1-2.3-2.3c-0.1-0.6,0-1.3,0-1.9     c0-4.4-3.3-7.7-7.8-7.7c-1.2,0-2.5,0-3.7,0c-3.8,0.1-6.8,2.5-7.5,6.2c-0.7,3.5,1.2,7,4.7,8.4c3.6,1.5,7.2,2.9,10.8,4.3     c5.7,2.3,8.8,7.5,8.1,13.3c-0.7,5.6-5.1,9.7-11.2,10.5c-0.1,0-0.2,0.1-0.5,0.2c0,1.4,0,2.8,0,4.1c0,1.7-1,2.9-2.4,3     c-1.4,0-2.5-1.3-2.5-3c0-1.4,0-2.7,0-4.1c-1.2-0.3-2.3-0.4-3.4-0.8c-5.5-1.8-9.2-7-8.4-14c0.1-1.1,1.2-2,2.3-2     c1.1,0,2.2,1,2.3,2.1c0.1,0.8,0,1.5,0,2.3c0.1,4.2,3.3,7.5,7.5,7.5c1.4,0,2.7,0,4.1,0c3.6-0.1,6.6-2.5,7.3-6.1     c0.7-3.4-1.1-7-4.4-8.4c-3.9-1.6-7.8-3.1-11.7-4.7C50.5,67,47.9,58.6,52.1,52C54.4,48.6,57.7,46.8,62,46.4z"></path>
		</g>
	</g>
</g>
</svg>