<svg xmlns="http://www.w3.org/2000/svg" xmlns:xlink="http://www.w3.org/1999/xlink" id="Capa_1" x="0px" y="0px" viewBox="0 0 150 150" style="enable-background:new 0 0 150 150;" xml:space="preserve">
<style type="text/css">
	.st0{fill:#5E5E5E;}
	.st1{fill:#00B0FF;}
</style>
<g id="XMLID_138_">
	<g id="XMLID_142_">
		<path class="st0" d="M94,134.2c-0.6,0-1.2-0.2-1.6-0.7l-24.8-24.8H26.8c-1.3,0-2.3-1-2.3-2.3V27.6c0-1.3,1-2.3,2.3-2.3h99.6    c1.3,0,2.3,1,2.3,2.3v78.8c0,1.3-1,2.3-2.3,2.3H96.3v23.2c0,0.9-0.6,1.8-1.4,2.1C94.6,134.1,94.3,134.2,94,134.2z M29.1,104.1    h39.4c0.6,0,1.2,0.2,1.6,0.7l21.6,21.6v-20c0-1.3,1-2.3,2.3-2.3h30.1V29.9h-95V104.1z"></path>
	</g>
	<g id="XMLID_141_">
		<path class="st1" d="M102.5,58.5H50c-1.3,0-2.3-1-2.3-2.3s1-2.3,2.3-2.3h52.5c1.3,0,2.3,1,2.3,2.3S103.8,58.5,102.5,58.5z"></path>
	</g>
	<g id="XMLID_139_">
		<path class="st1" d="M84.8,82H50c-1.3,0-2.3-1-2.3-2.3c0-1.3,1-2.3,2.3-2.3h34.7c1.3,0,2.3,1,2.3,2.3C87,81,86,82,84.8,82z"></path>
	</g>
</g>
</svg>