<svg xmlns="http://www.w3.org/2000/svg" xmlns:xlink="http://www.w3.org/1999/xlink" id="Capa_1" x="0px" y="0px" viewBox="0 0 150 150" style="enable-background:new 0 0 150 150;" xml:space="preserve">
<style type="text/css">
	.st0{fill:#00B0FF;}
	.st1{fill:#5E5E5E;}
</style>
<g id="XMLID_65_">
	<path id="XMLID_120_" class="st0" d="M71.9,113.4H48.1c-1.3,0-2.3-1-2.3-2.3c0-1.3,1-2.3,2.3-2.3h23.8c1.3,0,2.3,1,2.3,2.3   C74.2,112.4,73.2,113.4,71.9,113.4z"></path>
</g>
<g id="XMLID_73_">
	<g id="XMLID_69_">
		<path id="XMLID_119_" class="st0" d="M73.2,42.4H15.6c-1.3,0-2.3-1-2.3-2.3c0-1.3,1-2.3,2.3-2.3h57.6c1.3,0,2.3,1,2.3,2.3    C75.5,41.4,74.5,42.4,73.2,42.4z"></path>
	</g>
	<g id="XMLID_68_">
		<path id="XMLID_118_" class="st0" d="M60.5,59.4H38.3c-1.3,0-2.3-1-2.3-2.3s1-2.3,2.3-2.3h22.2c1.3,0,2.3,1,2.3,2.3    S61.8,59.4,60.5,59.4z"></path>
	</g>
	<g id="XMLID_67_">
		<path id="XMLID_117_" class="st0" d="M56.2,78.5H4.8c-1.3,0-2.3-1-2.3-2.3s1-2.3,2.3-2.3h51.4c1.3,0,2.3,1,2.3,2.3    S57.5,78.5,56.2,78.5z"></path>
	</g>
	<g id="XMLID_66_">
		<path id="XMLID_111_" class="st0" d="M60.5,97.6H24.6c-1.3,0-2.3-1-2.3-2.3s1-2.3,2.3-2.3h35.9c1.3,0,2.3,1,2.3,2.3    S61.8,97.6,60.5,97.6z"></path>
	</g>
	<g id="XMLID_70_">
		<g id="XMLID_72_">
			<path id="XMLID_108_" class="st1" d="M100.7,123c-25.8,0-46.8-21-46.8-46.8c0-25.8,21-46.8,46.8-46.8c25.8,0,46.8,21,46.8,46.8     C147.5,102,126.5,123,100.7,123z M100.7,34c-23.2,0-42.1,18.9-42.1,42.2c0,23.2,18.9,42.1,42.1,42.1c23.2,0,42.1-18.9,42.1-42.1     C142.9,52.9,123.9,34,100.7,34z"></path>
		</g>
		<g id="XMLID_71_">
			<path id="XMLID_107_" class="st1" d="M119.7,97.5c-0.6,0-1.2-0.2-1.6-0.7l-19-19c-0.4-0.4-0.7-1-0.7-1.6v-26c0-1.3,1-2.3,2.3-2.3     s2.3,1,2.3,2.3v25.1l18.3,18.4c0.9,0.9,0.9,2.4,0,3.3C120.9,97.3,120.3,97.5,119.7,97.5z"></path>
		</g>
	</g>
</g>
</svg>