<svg xmlns="http://www.w3.org/2000/svg" xmlns:xlink="http://www.w3.org/1999/xlink" id="Capa_1" x="0px" y="0px" viewBox="0 0 150 150" style="enable-background:new 0 0 150 150;" xml:space="preserve">
<style type="text/css">
	.st0{fill:#00B0FF;}
</style>
<g id="XMLID_89_">
	<path id="XMLID_104_" class="st0" d="M108.8,128.8c-0.3,0-0.6-0.1-0.9-0.2l-32-12.9l-32,12.9c-0.7,0.3-1.6,0.2-2.2-0.3   c-0.6-0.5-1-1.2-1-2l2.4-34.4L21.1,65.5c-0.5-0.6-0.7-1.5-0.4-2.2c0.2-0.8,0.9-1.3,1.6-1.5l33.4-8.3L74,24.2c0.8-1.4,3.1-1.4,3.9,0   l18.3,29.2l33.4,8.3c0.8,0.2,1.4,0.8,1.6,1.5c0.2,0.8,0.1,1.6-0.4,2.2l-22.2,26.4l2.4,34.4c0.1,0.8-0.3,1.6-1,2   C109.8,128.7,109.3,128.8,108.8,128.8z M76,110.9c0.3,0,0.6,0.1,0.9,0.2l29.4,11.9L104,91.3c0-0.6,0.2-1.2,0.5-1.7l20.4-24.3   l-30.7-7.7c-0.6-0.1-1.1-0.5-1.4-1L76,29.8L59.2,56.7c-0.3,0.5-0.8,0.9-1.4,1l-30.7,7.7l20.4,24.3c0.4,0.5,0.6,1.1,0.5,1.7   l-2.2,31.6l29.4-11.9C75.4,110.9,75.7,110.9,76,110.9z"></path>
</g>
</svg>