<svg xmlns="http://www.w3.org/2000/svg" xmlns:xlink="http://www.w3.org/1999/xlink" id="Capa_1" x="0px" y="0px" viewBox="0 0 150 150" style="enable-background:new 0 0 150 150;" xml:space="preserve">
<style type="text/css">
	.st0{fill:#5E5E5E;}
	.st1{fill:#00B0FF;}
</style>
<g id="XMLID_112_">
	<g id="XMLID_116_">
		<path id="XMLID_161_" class="st0" d="M61.1,128.1c-0.3,0-0.6-0.1-0.9-0.2l-30.6-12.8c-0.9-0.4-1.4-1.2-1.4-2.1V25.4    c0-0.8,0.4-1.5,1-1.9s1.4-0.5,2.2-0.2L62,36c0.9,0.4,1.4,1.2,1.4,2.1v87.6c0,0.8-0.4,1.5-1,1.9C62,127.9,61.6,128.1,61.1,128.1z     M32.8,111.5l26,10.9V39.7l-26-10.9V111.5z"></path>
	</g>
	<g id="XMLID_115_">
		<path id="XMLID_158_" class="st0" d="M61.1,128.1c-0.4,0-0.9-0.1-1.3-0.4c-0.6-0.4-1-1.1-1-1.9V38.1c0-0.9,0.6-1.8,1.4-2.1    l30.6-12.8c0.7-0.3,1.5-0.2,2.2,0.2c0.6,0.4,1,1.1,1,1.9V113c0,0.9-0.6,1.8-1.4,2.1L62,127.9C61.7,128,61.4,128.1,61.1,128.1z     M63.4,39.7v82.7l26-10.9V28.8L63.4,39.7z"></path>
	</g>
	<g id="XMLID_114_">
		<path id="XMLID_155_" class="st0" d="M122.2,124.9c-0.2,0-0.5,0-0.7-0.1L91,115.2c-1-0.3-1.6-1.2-1.6-2.2V25.4    c0-0.7,0.3-1.4,0.9-1.8s1.3-0.6,2-0.3l30.6,9.6c1,0.3,1.6,1.2,1.6,2.2v87.6c0,0.7-0.3,1.4-0.9,1.8    C123.2,124.7,122.7,124.9,122.2,124.9z M94,111.3l26,8.1V36.6l-26-8.1V111.3z"></path>
	</g>
	<g id="XMLID_113_">
		<path id="XMLID_153_" class="st1" d="M42.6,97.7c-0.9,0-1.8,0-2.7-0.1c-17.2-1.6-27-17.8-27.4-18.5c-0.6-1.1-0.3-2.5,0.8-3.1    c1.1-0.6,2.5-0.3,3.1,0.8c0.1,0.1,9.1,14.9,23.9,16.3c10.9,1,22.5-5.4,34.3-18.9c15.3-17.5,30.1-26.6,44-27    c12.4-0.3,19.3,6.6,19.5,6.9c0.9,0.9,0.9,2.4,0,3.2c-0.9,0.9-2.4,0.9-3.2,0c-0.2-0.2-5.9-5.8-16.3-5.5    c-12.3,0.4-26.4,9.2-40.6,25.4C66.2,90.8,54.2,97.7,42.6,97.7z"></path>
	</g>
</g>
</svg>