<svg xmlns="http://www.w3.org/2000/svg" xmlns:xlink="http://www.w3.org/1999/xlink" id="Capa_1" x="0px" y="0px" viewBox="0 0 150 150" style="enable-background:new 0 0 150 150;" xml:space="preserve">
<style type="text/css">
	.st0{fill:#00B0FF;}
	.st1{fill:#5E5E5E;}
</style>
<g id="XMLID_127_">
	<g id="XMLID_129_">
		<path id="XMLID_150_" class="st0" d="M86.6,81.2H72.1c-1.3,0-2.3-1-2.3-2.3V63.1c0-0.6,0.2-1.2,0.7-1.6l37-37    c0.9-0.9,2.4-0.9,3.3,0l15.2,15.2c0.9,0.9,0.9,2.4,0,3.3L88.3,80.5C87.8,81,87.2,81.2,86.6,81.2z M74.4,76.5h11.3L121,41.2    l-11.9-11.9L74.4,64V76.5z"></path>
	</g>
	<g id="XMLID_128_">
		<path id="XMLID_149_" class="st1" d="M109.4,129.2H92.1c-1.3,0-2.3-1-2.3-2.3s1-2.3,2.3-2.3h17.3c4.9,0,8.9-4,8.9-8.9    c0-4.9-4-8.9-8.9-8.9H39c-7.5,0-13.6-6.1-13.6-13.6v-3c0-7.5,6.1-13.6,13.6-13.6h15.5c1.3,0,2.3,1,2.3,2.3c0,1.3-1,2.3-2.3,2.3H39    c-4.9,0-8.9,4-8.9,8.9v3c0,4.9,4,8.9,8.9,8.9h70.4c7.5,0,13.6,6.1,13.6,13.6S116.9,129.2,109.4,129.2z"></path>
	</g>
</g>
</svg>