<?xml version="1.0" encoding="utf-8"?>
<!-- Generator: Adobe Illustrator 19.0.0, SVG Export Plug-In . SVG Version: 6.00 Build 0)  -->
<svg version="1.1" baseProfile="tiny" id="Capa_1" xmlns="http://www.w3.org/2000/svg" xmlns:xlink="http://www.w3.org/1999/xlink"
	 x="0px" y="0px" width="180px" height="69px" viewBox="0 0 180 69" xml:space="preserve">
<g id="XMLID_2157_">
	<path id="XMLID_2158_" d="M92.8,2.1h-19c-2.2,0-3.9,1.7-3.9,3.9s1.7,3.9,3.9,3.9h5.1c0.1-2.4,2-4.2,4.4-4.2c2.4,0,4.3,1.9,4.4,4.2
		h5.1c2.2,0,3.9-1.7,3.9-3.9S95,2.1,92.8,2.1z"/>
	<path id="XMLID_2159_" d="M78.9,10.1v26.4c0,2.4,2,4.4,4.4,4.4s4.4-2,4.4-4.4V10.1c0-0.1,0-0.1,0-0.2h-8.8
		C78.9,9.9,78.9,10,78.9,10.1z"/>
	<path id="XMLID_2160_" fill="#00B0FF" d="M83.3,5.7c-2.4,0-4.3,1.9-4.4,4.2h8.8C87.6,7.5,85.6,5.7,83.3,5.7z"/>
	<path id="XMLID_2161_" fill="#00B0FF" d="M83.3,5.7c-2.4,0-4.3,1.9-4.4,4.2h8.8C87.6,7.5,85.6,5.7,83.3,5.7z"/>
	<g id="XMLID_2162_">
		<path id="XMLID_2163_" d="M22.9,2.1h-19C1.7,2.1,0,3.8,0,6s1.7,3.9,3.9,3.9H9c0.1-2.4,2-4.2,4.4-4.2s4.3,1.9,4.4,4.2h5.1
			c2.2,0,3.9-1.7,3.9-3.9S25.1,2.1,22.9,2.1z"/>
		<path id="XMLID_2164_" d="M9,10.1v26.4c0,2.4,2,4.4,4.4,4.4s4.4-2,4.4-4.4V10.1c0-0.1,0-0.1,0-0.2H9C9,9.9,9,10,9,10.1z"/>
		<path id="XMLID_2165_" fill="#00B0FF" d="M13.4,5.7c-2.4,0-4.3,1.9-4.4,4.2h8.8C17.7,7.5,15.8,5.7,13.4,5.7z"/>
		<path id="XMLID_2166_" fill="#00B0FF" d="M13.4,5.7c-2.4,0-4.3,1.9-4.4,4.2h8.8C17.7,7.5,15.8,5.7,13.4,5.7z"/>
	</g>
	<path id="XMLID_2167_" d="M31.5,4.5c0-1.2,0.4-2.3,1.3-3.2C33.7,0.4,34.8,0,36,0c1.2,0,2.3,0.4,3.2,1.3c0.9,0.9,1.3,1.9,1.3,3.2
		c0,1.2-0.4,2.3-1.3,3.2C38.3,8.5,37.3,9,36,9c-1.2,0-2.3-0.4-3.2-1.3C32,6.8,31.5,5.7,31.5,4.5z"/>
	<path id="XMLID_2168_" d="M36,11.8c1.2,0,2.2,0.4,2.9,1.1c0.8,0.7,1.1,1.7,1.1,2.9v21.1c0,1.2-0.4,2.2-1.1,2.9
		c-0.8,0.7-1.7,1.1-2.9,1.1c-1.2,0-2.2-0.4-2.9-1.1c-0.8-0.7-1.1-1.7-1.1-2.9V15.8c0-1.2,0.4-2.2,1.1-2.9
		C33.8,12.1,34.8,11.8,36,11.8z"/>
	<path id="XMLID_2169_" d="M126.3,35.1c0.2,0.6,0.2,1.1,0.2,1.5c0,1.2-0.3,2.2-1,3.1c-0.7,0.8-1.7,1.3-2.9,1.3c-1.1,0-2-0.3-2.7-0.9
		c-0.7-0.6-1.2-1.4-1.5-2.3l-1.2-4.1h-11.6l-1.1,4.1c-0.2,0.9-0.7,1.7-1.4,2.3c-0.7,0.6-1.6,0.9-2.7,0.9c-1.2,0-2.2-0.4-2.7-1.2
		c-0.6-0.8-0.9-1.7-0.9-2.9c0-0.4,0.1-0.8,0.2-1.3l9.1-29.2c0.4-1.3,1.1-2.4,2.1-3.2c1-0.8,2.2-1.2,3.5-1.2c1.4,0,2.5,0.4,3.5,1.2
		c1,0.8,1.7,1.9,2.1,3.2L126.3,35.1z M107.6,26.5h7.7l-3.9-13.9L107.6,26.5z"/>
	<path id="XMLID_2172_" d="M133,6.5c0-1.2,0.4-2.2,1.1-3c0.8-0.8,1.8-1.1,3-1.1h9.8c1.9,0,3.7,0.3,5.4,0.9c1.6,0.6,3,1.4,4.3,2.5
		c1.2,1.1,2.1,2.4,2.8,4c0.7,1.6,1,3.3,1,5.1c0,2-0.3,3.8-1,5.4c-0.7,1.6-1.6,3-2.8,4.1c-1.2,1.1-2.6,2-4.3,2.6
		c-1.6,0.6-3.4,0.9-5.4,0.9h-5.5v8.9c0,1.2-0.4,2.2-1.2,3c-0.8,0.8-1.8,1.1-3.1,1.1c-1.2,0-2.3-0.4-3-1.1c-0.8-0.8-1.2-1.8-1.2-3
		V6.5z M141.5,9.7v10.7h4.8c1.7,0,3.1-0.5,4.1-1.5c1-1,1.5-2.3,1.5-4c0-1.6-0.5-2.9-1.5-3.9c-1-1-2.3-1.4-4.1-1.4H141.5z"/>
	<path id="XMLID_61_" d="M70,32.1c-0.1-0.6-0.3-1.1-0.6-1.6c-0.3-0.5-0.7-0.9-1.3-1.2c-0.5-0.3-1.1-0.4-1.8-0.4
		c-0.8,0-1.6,0.2-2.3,0.6c-0.7,0.4-1.2,1.1-1.6,2.1c-0.6,1.9-1.8,2.8-3.6,2.8c-1.4,0-2.4-0.4-3.1-1.2c-0.6-0.8-1-1.8-1-3V29h0l0-5.9
		h0v-0.6c0-1.2,0.3-2.3,0.9-3c0.6-0.8,1.6-1.2,3-1.2c1.4,0,2.5,0.8,3.4,2.3c0.5,0.8,1,1.4,1.5,1.8c0.6,0.4,1.3,0.7,2.3,0.7
		c0.8,0,1.5-0.2,2-0.5c0.6-0.3,1-0.8,1.3-1.3c0.3-0.5,0.5-1.1,0.5-1.8c0-0.7-0.1-1.3-0.3-1.9c-0.9-1.9-2.2-3.4-4.2-4.5
		c-1.9-1.1-4.2-1.7-6.7-1.7c-3.8,0-6.7,1-8.8,3.1c-2.1,2.1-3.2,4.9-3.2,8.5l0,0l0,5.5v0.9c0,3.6,1.1,6.4,3.2,8.5
		c2.2,2.1,5.1,3.1,8.8,3.1c2.7,0,5-0.6,7-1.9c1.9-1.3,3.3-3,4-5.3C70,33.3,70.1,32.7,70,32.1z"/>
	<path id="XMLID_60_" fill="#00B0FF" d="M137.9,24.1c0,2,1.6,3.6,3.6,3.7l0-7.4C139.5,20.5,137.9,22.1,137.9,24.1z"/>
	<path id="XMLID_59_" fill="#00B0FF" d="M50.8,30.3c2.2,0,4-1.7,4.1-3.9l-8.2,0C46.8,28.5,48.6,30.3,50.8,30.3z"/>
	<path id="XMLID_52_" fill="#00B0FF" d="M177.2,43.9c-1.4,0-2.5-1.1-2.5-2.5V8.1c0-1.4,1.1-2.5,2.5-2.5c1.4,0,2.5,1.1,2.5,2.5v33.3
		C179.8,42.8,178.6,43.9,177.2,43.9z"/>
	<path id="XMLID_51_" fill="#00B0FF" d="M164.4,38.8c-1.4,0-2.5-1.1-2.5-2.5l0-23c0-1.4,1.1-2.5,2.5-2.5s2.5,1.1,2.5,2.5l0,23
		C167,37.7,165.8,38.8,164.4,38.8z"/>
	<path id="XMLID_24_" fill="#00B0FF" d="M151.6,33.7c-1.4,0-2.5-1.1-2.5-2.5V18.3c0-1.4,1.1-2.5,2.5-2.5s2.5,1.1,2.5,2.5v12.8
		C154.2,32.5,153.1,33.7,151.6,33.7z"/>
	<path id="XMLID_23_" fill="#00B0FF" d="M102.2,30c0,1.9,1.5,3.4,3.4,3.5l2-7l-2,0C103.7,26.6,102.2,28.1,102.2,30z"/>
	<g id="XMLID_14_">
		<path id="XMLID_2180_" fill="#00B0FF" d="M17.4,57.9c-0.4,0-0.7-0.1-1-0.3c-0.3-0.2-0.5-0.5-0.6-0.8c-0.4-0.9-1.1-1.4-2-1.4
			c-0.6,0-1,0.1-1.4,0.4c-0.3,0.3-0.5,0.6-0.5,1.1c0,0.1,0,0.2,0,0.4c0,0.1,0.1,0.3,0.2,0.4c0.1,0.1,0.2,0.3,0.4,0.4
			c0.2,0.1,0.4,0.3,0.7,0.4l2.1,0.7c0.5,0.2,1,0.4,1.5,0.6c0.5,0.2,0.9,0.5,1.3,0.9c0.4,0.4,0.7,0.8,0.9,1.3
			c0.2,0.5,0.3,1.2,0.3,1.9c0,0.7-0.1,1.4-0.4,2c-0.3,0.6-0.6,1.1-1.1,1.6c-0.5,0.4-1.1,0.8-1.8,1c-0.7,0.2-1.5,0.4-2.3,0.4
			c-1.4,0-2.6-0.3-3.6-0.9c-1-0.6-1.6-1.4-2-2.5c-0.1-0.3-0.1-0.5-0.1-0.8c0-0.3,0.1-0.5,0.3-0.7c0.1-0.2,0.3-0.4,0.6-0.5
			c0.2-0.1,0.5-0.2,0.9-0.2c0.8,0,1.4,0.4,1.7,1.3c0.1,0.4,0.4,0.8,0.8,1c0.4,0.2,0.8,0.4,1.5,0.4c0.7,0,1.3-0.2,1.7-0.5
			c0.4-0.3,0.6-0.7,0.6-1.2c0-0.3-0.1-0.7-0.3-1c-0.2-0.3-0.5-0.6-1.1-0.7l-2.5-0.9c-1.2-0.4-2.1-1-2.8-1.7
			c-0.6-0.7-0.9-1.7-0.9-2.8c0-0.6,0.1-1.2,0.4-1.8c0.2-0.6,0.6-1.1,1-1.5c0.5-0.4,1-0.8,1.7-1c0.7-0.3,1.4-0.4,2.2-0.4
			c1.3,0,2.4,0.3,3.3,0.8c0.9,0.6,1.5,1.3,1.9,2.3c0.1,0.3,0.1,0.6,0.1,0.8c0,0.3-0.1,0.5-0.3,0.7c-0.1,0.2-0.3,0.4-0.6,0.5
			C18,57.9,17.7,57.9,17.4,57.9z"/>
		<path id="XMLID_2182_" fill="#00B0FF" d="M25.7,67.1c0,0.5-0.2,0.9-0.5,1.3c-0.3,0.3-0.8,0.5-1.3,0.5c-0.5,0-0.9-0.2-1.3-0.5
			c-0.3-0.3-0.5-0.7-0.5-1.3V54.3c0-0.5,0.2-0.9,0.5-1.3c0.3-0.3,0.7-0.5,1.3-0.5c0.5,0,1,0.2,1.3,0.5c0.3,0.3,0.5,0.7,0.5,1.3V67.1
			z"/>
		<path id="XMLID_2184_" fill="#00B0FF" d="M35.9,59.1l3-5.4c0.2-0.3,0.4-0.6,0.7-0.8c0.3-0.2,0.7-0.3,1.2-0.3
			c0.5,0,0.9,0.2,1.2,0.5s0.5,0.7,0.5,1.3v12.9c0,0.5-0.2,0.9-0.5,1.2c-0.3,0.3-0.8,0.5-1.2,0.5c-0.5,0-0.9-0.1-1.2-0.5
			c-0.3-0.3-0.5-0.7-0.5-1.2v-7.5l-1.7,3c-0.2,0.3-0.4,0.5-0.6,0.7c-0.2,0.2-0.5,0.2-0.9,0.2c-0.4,0-0.7-0.1-0.9-0.2
			c-0.2-0.2-0.4-0.4-0.6-0.6l-1.8-3.1v7.7c0,0.5-0.2,0.8-0.5,1.1c-0.3,0.3-0.7,0.4-1.2,0.4c-0.5,0-0.9-0.1-1.2-0.4
			c-0.3-0.3-0.5-0.7-0.5-1.1V54.3c0-0.5,0.2-0.9,0.5-1.3c0.3-0.3,0.7-0.5,1.2-0.5c0.5,0,0.9,0.1,1.2,0.3c0.3,0.2,0.5,0.5,0.7,0.8
			L35.9,59.1z"/>
		<path id="XMLID_2186_" fill="#00B0FF" d="M45.9,54.5c0-0.5,0.2-0.9,0.5-1.3c0.3-0.3,0.7-0.5,1.3-0.5h4.1c0.8,0,1.6,0.1,2.2,0.4
			c0.7,0.3,1.3,0.6,1.8,1.1c0.5,0.5,0.9,1,1.2,1.7c0.3,0.6,0.4,1.4,0.4,2.1c0,0.8-0.1,1.6-0.4,2.3c-0.3,0.7-0.7,1.2-1.2,1.7
			c-0.5,0.5-1.1,0.8-1.8,1.1c-0.7,0.3-1.4,0.4-2.2,0.4h-2.3v3.7c0,0.5-0.2,0.9-0.5,1.3c-0.3,0.3-0.8,0.5-1.3,0.5
			c-0.5,0-0.9-0.2-1.3-0.5c-0.3-0.3-0.5-0.7-0.5-1.3V54.5z M49.5,55.8v4.5h2c0.7,0,1.3-0.2,1.7-0.6c0.4-0.4,0.6-1,0.6-1.7
			c0-0.7-0.2-1.2-0.6-1.6c-0.4-0.4-1-0.6-1.7-0.6H49.5z"/>
		<path id="XMLID_2189_" fill="#00B0FF" d="M63.3,65.6h4.5c0.5,0,0.8,0.1,1.1,0.4c0.3,0.3,0.4,0.7,0.4,1.1c0,0.5-0.1,0.9-0.4,1.1
			c-0.3,0.3-0.7,0.4-1.1,0.4h-6.3c-0.5,0-0.9-0.2-1.3-0.5c-0.3-0.3-0.5-0.7-0.5-1.3V54.3c0-0.5,0.2-0.9,0.5-1.3
			c0.3-0.3,0.7-0.5,1.3-0.5c0.5,0,0.9,0.2,1.3,0.5c0.3,0.3,0.5,0.7,0.5,1.3V65.6z"/>
		<path id="XMLID_2191_" fill="#00B0FF" d="M76.2,62.2v4.9c0,0.5-0.2,0.9-0.5,1.3c-0.3,0.3-0.8,0.5-1.3,0.5c-0.5,0-0.9-0.2-1.3-0.5
			c-0.3-0.3-0.5-0.7-0.5-1.3v-4.8L68.9,55c0-0.1-0.1-0.2-0.1-0.3c0-0.1-0.1-0.3-0.1-0.4c0-0.5,0.2-0.9,0.5-1.2
			c0.3-0.3,0.7-0.5,1.2-0.5c0.3,0,0.6,0.1,0.9,0.3c0.3,0.2,0.5,0.4,0.6,0.7l2.6,5.4l2.6-5.4c0.1-0.3,0.3-0.5,0.6-0.6
			c0.3-0.1,0.5-0.2,0.9-0.2c0.4,0,0.8,0.2,1.1,0.5c0.3,0.3,0.5,0.7,0.5,1.1c0,0.1,0,0.2,0,0.3c0,0.1-0.1,0.3-0.1,0.3L76.2,62.2z"/>
		<path id="XMLID_2193_" fill="#00B0FF" d="M95.5,62.9c0.3,0,0.5,0.1,0.7,0.2c0.2,0.1,0.4,0.3,0.6,0.5c0.2,0.2,0.3,0.4,0.3,0.7
			c0.1,0.3,0.1,0.5,0,0.8c-0.3,1.2-0.9,2.2-1.8,2.9c-1,0.7-2.1,1-3.6,1c-0.9,0-1.6-0.1-2.3-0.4c-0.7-0.3-1.3-0.6-1.8-1.1
			c-0.5-0.5-0.9-1-1.2-1.7c-0.3-0.7-0.4-1.4-0.4-2.3v-5.6c0-1.7,0.5-3,1.5-4c1-1,2.4-1.5,4.3-1.5c1.4,0,2.6,0.3,3.5,1
			c0.9,0.7,1.6,1.6,1.9,2.9c0.1,0.3,0.1,0.5,0,0.8c0,0.3-0.1,0.5-0.3,0.7c-0.1,0.2-0.3,0.4-0.6,0.5c-0.2,0.1-0.5,0.2-0.8,0.2
			c-0.5,0-0.9-0.1-1.1-0.3c-0.3-0.2-0.4-0.5-0.5-0.9c-0.3-1.1-1-1.7-2.2-1.7c-0.7,0-1.2,0.2-1.6,0.6c-0.4,0.4-0.6,1-0.6,1.7v5.5
			c0,0.7,0.2,1.3,0.6,1.7c0.4,0.4,0.9,0.6,1.6,0.6c0.6,0,1.1-0.1,1.4-0.4c0.4-0.3,0.6-0.7,0.7-1.2c0.1-0.4,0.3-0.7,0.5-0.9
			C94.7,63,95,62.9,95.5,62.9z"/>
		<path id="XMLID_2195_" fill="#00B0FF" d="M111.3,63.5c0,0.8-0.1,1.6-0.4,2.3c-0.3,0.7-0.7,1.2-1.2,1.7c-0.5,0.5-1.1,0.8-1.8,1.1
			c-0.7,0.3-1.5,0.4-2.4,0.4s-1.6-0.1-2.4-0.4c-0.7-0.3-1.3-0.6-1.8-1.1c-0.5-0.5-0.9-1-1.2-1.7c-0.3-0.7-0.4-1.4-0.4-2.3v-5.6
			c0-1.7,0.5-3,1.5-4c1-1,2.4-1.5,4.3-1.5c0.9,0,1.6,0.1,2.4,0.4c0.7,0.3,1.3,0.6,1.8,1.1c0.5,0.5,0.9,1,1.2,1.7
			c0.3,0.7,0.4,1.4,0.4,2.3V63.5z M103.2,63.5c0,0.7,0.2,1.3,0.6,1.7c0.4,0.4,1,0.6,1.7,0.6c0.7,0,1.3-0.2,1.7-0.6
			c0.4-0.4,0.6-1,0.6-1.7V58c0-0.7-0.2-1.3-0.6-1.7c-0.4-0.4-1-0.6-1.7-0.6c-0.7,0-1.3,0.2-1.7,0.6c-0.4,0.4-0.6,1-0.6,1.7V63.5z"/>
		<path id="XMLID_2198_" fill="#00B0FF" d="M125.5,67.1c0,0.5-0.2,0.9-0.5,1.3c-0.3,0.3-0.7,0.5-1.2,0.5c-0.4,0-0.7-0.1-1-0.3
			c-0.3-0.2-0.5-0.4-0.7-0.7l-4.6-8.2v7.7c0,0.5-0.1,0.8-0.5,1.1s-0.7,0.4-1.2,0.4c-0.5,0-0.9-0.1-1.2-0.4s-0.5-0.7-0.5-1.1V54.3
			c0-0.5,0.2-0.9,0.5-1.3s0.8-0.5,1.3-0.5c0.4,0,0.7,0.1,1,0.2c0.3,0.2,0.6,0.5,0.8,0.9l4.4,7.9v-7.4c0-0.5,0.1-0.8,0.4-1.1
			c0.3-0.3,0.7-0.4,1.1-0.4c0.5,0,0.9,0.1,1.2,0.4c0.3,0.3,0.5,0.7,0.5,1.1V67.1z"/>
		<path id="XMLID_2200_" fill="#00B0FF" d="M140.2,67.1c0,0.5-0.2,0.9-0.5,1.3c-0.3,0.3-0.7,0.5-1.2,0.5c-0.4,0-0.7-0.1-1-0.3
			c-0.3-0.2-0.5-0.4-0.7-0.7l-4.6-8.2v7.7c0,0.5-0.1,0.8-0.5,1.1s-0.7,0.4-1.2,0.4c-0.5,0-0.9-0.1-1.2-0.4s-0.5-0.7-0.5-1.1V54.3
			c0-0.5,0.2-0.9,0.5-1.3s0.8-0.5,1.3-0.5c0.4,0,0.7,0.1,1,0.2c0.3,0.2,0.6,0.5,0.8,0.9l4.4,7.9v-7.4c0-0.5,0.1-0.8,0.4-1.1
			c0.3-0.3,0.7-0.4,1.1-0.4c0.5,0,0.9,0.1,1.2,0.4c0.3,0.3,0.5,0.7,0.5,1.1V67.1z"/>
		<path id="XMLID_2202_" fill="#00B0FF" d="M147.2,62.2v3.4h5.3c0.5,0,0.8,0.1,1.1,0.4c0.3,0.3,0.4,0.7,0.4,1.1
			c0,0.5-0.1,0.9-0.4,1.1c-0.3,0.3-0.7,0.4-1.1,0.4h-7.1c-0.5,0-0.9-0.2-1.3-0.5c-0.3-0.3-0.5-0.7-0.5-1.3V54.5
			c0-0.5,0.2-0.9,0.5-1.3c0.3-0.3,0.7-0.5,1.3-0.5h6.8c0.5,0,0.8,0.1,1.1,0.4c0.3,0.3,0.4,0.7,0.4,1.1c0,0.5-0.1,0.9-0.4,1.2
			c-0.3,0.3-0.7,0.5-1.1,0.5h-5v3.2h4.3c0.5,0,0.8,0.1,1.1,0.4c0.3,0.3,0.4,0.7,0.4,1.1c0,0.5-0.1,0.8-0.4,1.1
			c-0.3,0.3-0.6,0.4-1.1,0.4H147.2z"/>
		<path id="XMLID_2204_" fill="#00B0FF" d="M165.7,62.9c0.3,0,0.5,0.1,0.7,0.2c0.2,0.1,0.4,0.3,0.6,0.5c0.2,0.2,0.3,0.4,0.3,0.7
			c0.1,0.3,0.1,0.5,0,0.8c-0.3,1.2-0.9,2.2-1.8,2.9c-1,0.7-2.1,1-3.6,1c-0.9,0-1.6-0.1-2.3-0.4c-0.7-0.3-1.3-0.6-1.8-1.1
			c-0.5-0.5-0.9-1-1.2-1.7s-0.4-1.4-0.4-2.3v-5.6c0-1.7,0.5-3,1.5-4c1-1,2.4-1.5,4.3-1.5c1.4,0,2.6,0.3,3.5,1
			c0.9,0.7,1.6,1.6,1.9,2.9c0.1,0.3,0.1,0.5,0,0.8c0,0.3-0.1,0.5-0.3,0.7c-0.1,0.2-0.3,0.4-0.6,0.5c-0.2,0.1-0.5,0.2-0.8,0.2
			c-0.5,0-0.9-0.1-1.1-0.3c-0.3-0.2-0.4-0.5-0.5-0.9c-0.3-1.1-1-1.7-2.2-1.7c-0.7,0-1.2,0.2-1.6,0.6c-0.4,0.4-0.6,1-0.6,1.7v5.5
			c0,0.7,0.2,1.3,0.6,1.7c0.4,0.4,0.9,0.6,1.6,0.6c0.6,0,1.1-0.1,1.4-0.4c0.4-0.3,0.6-0.7,0.7-1.2c0.1-0.4,0.3-0.7,0.5-0.9
			C164.8,63,165.2,62.9,165.7,62.9z"/>
		<path id="XMLID_2206_" fill="#00B0FF" d="M168.9,54.3c0-0.5,0.1-0.9,0.4-1.1c0.3-0.3,0.7-0.4,1.1-0.4h8c0.5,0,0.8,0.1,1.1,0.5
			c0.3,0.3,0.4,0.7,0.4,1.2c0,0.5-0.1,0.8-0.4,1.1c-0.3,0.3-0.7,0.4-1.1,0.4h-2.2v11.2c0,0.5-0.2,0.9-0.5,1.3
			c-0.3,0.3-0.8,0.5-1.3,0.5c-0.5,0-0.9-0.2-1.3-0.5c-0.3-0.3-0.5-0.7-0.5-1.3V55.9h-2.2c-0.5,0-0.8-0.1-1.1-0.4
			C169,55.2,168.9,54.8,168.9,54.3z"/>
	</g>
</g>
</svg>
