<svg xmlns="http://www.w3.org/2000/svg" xmlns:xlink="http://www.w3.org/1999/xlink" id="Capa_1" x="0px" y="0px" viewBox="0 0 350 300" style="enable-background:new 0 0 350 300;" xml:space="preserve">
<style type="text/css">
	.st0{fill:#DBDBDB;}
	.st1{fill:#5E5E5E;}
	.st2{fill:#FFFFFF;}
	.st3{fill:#00B0FF;}
</style>
<g id="XMLID_106_">
	<g id="XMLID_640_">
		<g id="XMLID_691_">
			<path id="XMLID_170_" class="st0" d="M349.3,52.8H49.5V39.2c0-5.9,4.8-10.7,10.7-10.7h278.5c5.9,0,10.7,4.8,10.7,10.7V52.8z"></path>
		</g>
		<g id="XMLID_689_">
			<rect id="XMLID_168_" x="161.9" y="227.1" class="st0" width="65.9" height="49.5"></rect>
		</g>
		<g id="XMLID_688_">
			<path id="XMLID_166_" class="st0" d="M98.5,276.8H23.4c-2.2,0-4-1.8-4-4V122.3c0-2.2,1.8-4,4-4h75.1c2.2,0,4,1.8,4,4v150.5     C102.5,275,100.7,276.8,98.5,276.8z"></path>
		</g>
		<g id="XMLID_687_">
			<path id="XMLID_164_" class="st0" d="M102.5,204.9v31.3h239.6c4.4,0,7.9-3.5,7.9-7.9v-23.4H102.5z"></path>
		</g>
		<g id="XMLID_686_">
			<rect id="XMLID_71_" x="91" y="190" class="st1" width="246" height="6"></rect>
		</g>
		<g id="XMLID_685_">
			<path id="XMLID_68_" class="st1" d="M218.5,270.3h-71.6v-45.6h71.6V270.3z M152.6,264.6h60.2v-34.1h-60.2V264.6z"></path>
		</g>
		<g id="XMLID_684_">
			<path id="XMLID_67_" class="st1" d="M256.4,271H108.8c-1.6,0-2.9-1.4-2.9-3s1.3-3,2.9-3h147.5c1.6,0,2.9,1.4,2.9,3     S257.9,271,256.4,271z"></path>
		</g>
		<g id="XMLID_683_">
			<polyline id="XMLID_66_" class="st2" points="9,128 90,128 90,247 8,247 8,128    "></polyline>
			<path id="XMLID_63_" class="st1" d="M92,249H5V128h4v-3h83V249z M10,243h76V130H10V243z"></path>
		</g>
		<g id="XMLID_682_">
			<path id="XMLID_60_" class="st1" d="M84.6,270.5H13c-4.7,0-8.6-3.9-8.6-8.6v-147c0-4.7,3.9-8.6,8.6-8.6h71.6     c4.7,0,8.6,3.9,8.6,8.6v147C93.2,266.7,89.4,270.5,84.6,270.5z M13,112c-1.6,0-2.9,1.3-2.9,2.9v147c0,1.6,1.3,2.9,2.9,2.9h71.6     c1.6,0,2.9-1.3,2.9-2.9v-147c0-1.6-1.3-2.9-2.9-2.9H13z"></path>
		</g>
		<g id="XMLID_681_">
			<path id="XMLID_59_" class="st1" d="M58.7,260H40.1c-1.6,0-2.9-0.9-2.9-2.5s1.3-2.5,2.9-2.5h18.6c1.6,0,2.9,0.9,2.9,2.5     S60.3,260,58.7,260z"></path>
		</g>
		<g id="XMLID_680_">
			<path id="XMLID_58_" class="st1" d="M336.6,59.9c-1.6,0-2.9-1.3-2.9-2.9V31.4c0-6.3-5.1-11.5-11.5-11.5H102.7     c-1.6,0-2.9-1.3-2.9-2.9s1.3-2.9,2.9-2.9h219.6c9.5,0,17.2,7.7,17.2,17.2V57C339.5,58.6,338.2,59.9,336.6,59.9z"></path>
		</g>
		<g id="XMLID_679_">
			<path id="XMLID_57_" class="st1" d="M36.8,99.9c-1.6,0-2.9-1.3-2.9-2.9V31.4c0-9.5,7.7-17.2,17.2-17.2h31.5     c1.6,0,2.9,1.3,2.9,2.9s-1.3,2.9-2.9,2.9H51.1c-6.3,0-11.5,5.1-11.5,11.5V97C39.7,98.6,38.4,99.9,36.8,99.9z"></path>
		</g>
		<g id="XMLID_678_">
			<path id="XMLID_56_" class="st1" d="M325.4,230h-235c-1.6,0-2.9-1.3-2.9-2.9s1.3-2.9,2.9-2.9h235c4.6,0,8.4-3.7,8.4-8.4v-163     c0-1.6,1.3-2.9,2.9-2.9s2.9,1.3,2.9,2.9v163C339.5,223.6,333.2,230,325.4,230z"></path>
		</g>
		<g id="XMLID_677_">
			<path id="XMLID_55_" class="st1" d="M336.6,44.2H36.8c-1.6,0-2.9-1.3-2.9-2.9s1.3-2.9,2.9-2.9h299.8c1.6,0,2.9,1.3,2.9,2.9     S338.2,44.2,336.6,44.2z"></path>
		</g>
		<g id="XMLID_671_">
			<path id="XMLID_54_" class="st1" d="M59.7,32.3h-6.7c-1.6,0-2.9-1.3-2.9-2.9s1.3-2.9,2.9-2.9h6.7c1.6,0,2.9,1.3,2.9,2.9     S61.3,32.3,59.7,32.3z"></path>
		</g>
		<g id="XMLID_669_">
			<path id="XMLID_53_" class="st1" d="M77.9,32.3h-6.2c-1.6,0-2.9-1.3-2.9-2.9s1.3-2.9,2.9-2.9h6.2c1.6,0,2.9,1.3,2.9,2.9     S79.5,32.3,77.9,32.3z"></path>
		</g>
	</g>
	<g id="XMLID_722_">
		<path id="XMLID_128_" class="st3" d="M91.7,77.7l-2.5-3.2c-0.3-0.4-0.5-1-0.5-1.5l0.2-4L84.9,68c-0.5-0.1-1-0.4-1.3-1l-2.4-3.3    l-3.8,1.5c-0.5,0.2-1.1,0.2-1.6,0l-3.7-1.5l-2.2,3.4c-0.3,0.4-0.7,0.7-1.3,1l-3.9,1.1l0.2,4c0,0.5-0.1,1.1-0.5,1.5l-2.5,3.2    l2.5,3.2c0.3,0.4,0.5,1,0.5,1.5l-0.1,3.9l3.9,1.1c0.5,0.1,1,0.4,1.3,1l2.2,3.4l3.8-1.5c0.5-0.2,1.1-0.2,1.6,0l3.8,1.5l2.2-3.4    c0.3-0.4,0.7-0.7,1.3-1l3.9-1.1l-0.2-4c0-0.5,0.1-1.1,0.5-1.5L91.7,77.7z M76.8,83c-2.9,0-5.2-2.3-5.2-5.2c0-2.9,2.3-5.2,5.2-5.2    s5.2,2.3,5.2,5.2C82,80.7,79.7,83,76.8,83z"></path>
	</g>
	<g id="XMLID_720_">
		<rect id="XMLID_52_" x="112" y="74.9" class="st1" width="92.4" height="5.7"></rect>
	</g>
	<g id="XMLID_719_">
		<rect id="XMLID_51_" x="112" y="62.8" class="st1" width="92.4" height="5.7"></rect>
	</g>
	<g id="XMLID_718_">
		<path id="XMLID_50_" class="st3" d="M315.5,69.3h-27c-2,0-3.6-1.6-3.6-3.6c0-2,1.6-3.6,3.6-3.6h27c2,0,3.6,1.6,3.6,3.6    C319,67.7,317.4,69.3,315.5,69.3z"></path>
	</g>
	<g id="XMLID_717_">
		<rect id="XMLID_49_" x="112" y="87.7" class="st1" width="72.5" height="5.7"></rect>
	</g>
	<g id="XMLID_746_">
		<g id="XMLID_747_">
			<path id="XMLID_116_" class="st3" d="M51.3,194.9c-4.6,0.2-8.3-3.4-8.6-7.8c-0.2-4.6,3.5-8.4,8-8.5c4.5-0.1,8.1,3.4,8.3,7.8     C59.3,191,55.8,194.7,51.3,194.9 M72.2,183.1c-0.2-1-0.5-2-0.7-3c-0.1-0.3-0.2-0.5-0.5-0.5c-1.4-0.1-2.8-0.2-4.2-0.3     c-0.2,0-0.5-0.2-0.5-0.4c-0.2-0.4-0.4-0.8-0.6-1.1c-0.1-0.2-0.1-0.5,0.1-0.7c0.7-1.1,1.4-2.3,2.1-3.5c0.1-0.2,0.2-0.3,0.1-0.5     c0-0.1-0.1-0.2-0.2-0.2c-0.9-0.9-1.8-1.9-2.7-2.8c-0.2-0.2-0.5-0.3-0.8-0.2c-1.2,0.7-2.3,1.3-3.6,2c-0.3,0.2-0.5,0.2-0.8,0     c-0.3-0.2-0.5-0.3-0.8-0.5c-0.3-0.2-0.5-0.4-0.5-0.8c-0.1-1.4-0.1-2.7-0.2-4c0-0.3-0.2-0.5-0.5-0.6c-1.3-0.3-2.5-0.6-3.8-0.9     c0,0-0.1,0-0.1-0.1h-0.2c-0.2,0.1-0.4,0.2-0.5,0.5c-0.6,1.1-1.2,2.3-1.8,3.5c0,0.1-0.1,0.2-0.1,0.2c-0.3,0.2-0.4,0.3-0.6,0.3     c-0.4,0-0.8,0-1.2,0.1c-0.3,0-0.5-0.1-0.7-0.3c-0.8-1.1-1.6-2.3-2.3-3.3c-0.2-0.3-0.4-0.4-0.8-0.2c-1.2,0.4-2.4,0.8-3.6,1.2     c-0.3,0.1-0.5,0.3-0.4,0.6c0.1,1.4,0.2,2.7,0.3,4c0,0.3-0.1,0.5-0.3,0.7c-0.4,0.2-0.8,0.5-1.1,0.8c-0.2,0.2-0.5,0.2-0.8,0.1     c-1.3-0.5-2.5-1.1-3.8-1.6c-0.3-0.2-0.5-0.1-0.8,0.2c-0.8,1-1.6,1.9-2.3,2.9c-0.2,0.2-0.2,0.5,0,0.8c0.8,1.1,1.6,2.1,2.4,3.2     c0.2,0.2,0.2,0.5,0.1,0.8c-0.2,0.5-0.4,1-0.6,1.5c-0.2,0.3-0.3,0.5-0.6,0.5c-1.4,0.2-2.7,0.5-4.1,0.8c-0.2,0.1-0.5,0.2-0.5,0.5     c-0.1,0.9-0.2,1.8-0.3,2.7c0,0.3-0.1,0.6-0.1,0.8v0.2v0.4c0.3,0.1,0.6,0.2,0.9,0.3c1.1,0.4,2.2,0.8,3.3,1.2     c0.2,0.1,0.4,0.3,0.5,0.5c0.2,0.7,0.2,1.3,0.4,2c0.1,0.2,0,0.5-0.2,0.7c-0.6,0.5-1.1,1.1-1.7,1.6c-0.5,0.4-0.9,0.8-1.3,1.2     c-0.2,0.2-0.2,0.5-0.2,0.7c0.5,1.1,1.1,2.1,1.7,3.2c0.2,0.2,0.4,0.3,0.6,0.3c0.8-0.2,1.4-0.3,2.2-0.5c0.6-0.2,1.1-0.2,1.7-0.4     c0.3-0.1,0.5,0,0.8,0.2c0.5,0.5,1,1,1.4,1.5c0.2,0.2,0.3,0.5,0.2,0.8c-0.3,1.3-0.7,2.7-1,3.9c-0.1,0.3,0,0.5,0.3,0.7     c1,0.6,2,1.1,3,1.7c0.2,0.2,0.5,0.2,0.7-0.1c0.9-1,1.9-1.9,2.8-2.9c0.2-0.2,0.5-0.3,0.8-0.2c0.6,0.2,1.3,0.3,1.9,0.5     c0.3,0.1,0.5,0.2,0.6,0.5c0.5,1.3,0.8,2.6,1.3,3.8c0.1,0.3,0.3,0.5,0.6,0.5c0.9,0,1.8-0.1,2.7-0.2c0.3,0,0.5-0.1,0.8-0.1     c0.3,0,0.5-0.2,0.5-0.5c0.2-0.8,0.3-1.6,0.5-2.4c0.2-0.5,0.2-1.1,0.4-1.7c0.1-0.2,0.2-0.5,0.5-0.5c0.6-0.2,1.3-0.5,1.9-0.7     c0.2-0.1,0.5,0,0.7,0.2c0.8,0.7,1.7,1.3,2.4,2c0.2,0.2,0.5,0.4,0.7,0.5c0.2,0.2,0.5,0.2,0.7,0c1-0.8,1.9-1.4,2.9-2.2     c0.2-0.2,0.3-0.5,0.2-0.8c-0.5-1.3-1-2.6-1.4-3.8c-0.1-0.2-0.1-0.4,0-0.5c0-0.1,0.1-0.2,0.1-0.2c0.3-0.5,0.6-0.9,1-1.3     c0.2-0.2,0.4-0.3,0.7-0.3c1.4,0.2,2.7,0.3,4,0.5c0.3,0,0.5-0.1,0.6-0.4c0.5-1.2,0.8-2.4,1.3-3.6c0.1-0.3,0-0.5-0.2-0.7     c-1.1-0.8-2.2-1.6-3.3-2.4c-0.3-0.2-0.4-0.5-0.4-0.8c0-0.4,0.1-0.8,0.1-1.2c0-0.3,0.2-0.5,0.5-0.7c1.1-0.6,2.4-1.1,3.5-1.7     c0.2-0.1,0.4-0.2,0.5-0.5v-0.2C72.4,183.7,72.3,183.4,72.2,183.1"></path>
		</g>
	</g>
	<g id="XMLID_745_">
		<polygon id="XMLID_48_" class="st1" points="295,176.9 119.1,176.9 119.1,128.2 124.8,128.2 124.8,171.2 295,171.2   "></polygon>
	</g>
	<g id="XMLID_726_">
		<path id="XMLID_39_" class="st3" d="M131.6,168.7c-1.3,0-2.5-0.7-3.1-1.8c-1-1.7-0.3-3.9,1.4-4.9l27-15.1l10.4,7.1l26.9-16.3    l13.4,11.2l32.2-19.4l18.8,15l34.6-19.4c1.7-1,3.9-0.3,4.9,1.4s0.3,3.9-1.4,4.9l-38.8,21.7l-18.7-14.9L207,157.7l-13.4-11.2    l-26.5,16l-10.6-7.2l-23.2,12.9C132.7,168.6,132.1,168.7,131.6,168.7z"></path>
	</g>
</g>
</svg>